<svg width="227" height="55" fill="none" xmlns="http://www.w3.org/2000/svg"><path d="M226.444 17.032c.088.287-1.084.038-.37.333 1.287 0-3.435.357-1.254.404l.079-.01c-.257-.313.258-.077.231.046-.027.154-.32.002-.289.114.146.099.655.092.8.116-.334.03-.452.02-.148.137 1.195.342-3.611.232-2.224.775-.631.74-4.922.496-3.225.928-.098.083-.647.23-.363.309 3.261.202-5.18.274-.77.432.466.302-1.052.11-.291.376 1.099.1-1.947.12-2.077.384 1.01.22.517-.485 1.09.083-.989.141.206.127.486.188-.764.042-.056.198.227.215-1.355.118-5.076 1.193-3.163 1.132-1.02.071-5.55.318-3.195.504.555 1.598-10.094.27-10.422 1.683 1.075.025.129.017-.454.086-1.836.543 8.518-.566 6.404.52 2.77-.131-1.791.35.521.2 1.818.975.53.032-.393.467 1.918.888-2.522.447-2.339.58 4.239-.13 24.397 1.949 18.233 3.304.422.236.257-.496.52.146-.076.071-.216.008-.248.084.522.355.327-.355 1.012-.061-.105.114-1.106.274-.462.485.831.298-2.806.363-1.653.986-.072.72-3.991.935-2.379 1.28-.431.365-.521.41.126.413.116.733-2.645-.11-1.915.807-2.658.57 5.678 1.022 3.326 1.374-.563.14.061.298.281.321-2.267.116.274.568-1.386.798.117-.122.527-.251.016-.268-2.554.359 2.184.287 2.672.927-.148.074-.934.031-.432-.138-.07.043-.761.195-.349.374 2.625.693-5.823.777-6.989 1.275 6.857.357-13.537.496-8.87 1.465 1.901.665 5.299-1.176 4.171.971 5.076 1.611-15.949 2.289-4.815 2.536-1.284.614-4.022.3-2.205 1.235-1.065.137.349.22.561.462 3.114 1.961-7.009-.325-7.716 1.427-.386.006-2.839.038-1.821.245.192.053-.194.218-.276.28-.21.03-.12-.998-.656-.018-.026-.593-1.288-.376-.618-.131-1.569.325-4.258-.125-5.678.893 1.16.39.39-.606.977-.365.225 2.229-8.22.443-11.293 2.024 3.813.526 18.118-1.562 22.734-.122-44.914 4.716-105.192 2.736-147.994 2.951-3.032.363-5.233 1.087-8.463 1.58-.172-.079.237-1.042.151-1.453-.92.025-3.1-1.869-2.718-.323-1.146.407.276-1.558-.957-.743-.304.257.036.867-.416.584-.82-.426-.66.298.09.408 1.535.815-1.823.74-1.262-.205 2.371-1.997 1.738-.169.764-2.109-.085-1.09-1.314.367-1.231-.278 1.377-.547.848-.963 1.258-1.708-1.61-.756-3.245.11-3.893.164 7.743 2.456-4.133-1.108-5.72.756.803 1.186 4.662 1.298 2.727 2.71-4.014-.544-5.668-3.932-8.815-3.508 2.31 1.125-4.29-.188-4.413-.14-.684-1.694-7.716-.05-7.546-1.412 3.95-.185 16.128 1.001 5.749-.487-.105.034.216.228.07.23-.069-.49-1.221-.46-.739-.648.09-.387.322-.25.183.053 1.077-.214-1.963-.742-2.262-.621.222-.602-.461.297-.37-.197-.152-.27-.176.425-.22.248-.124-.258.231-.355-.439-.364-.695.108-.792-.635-1.504-.188-.46-1.01-4.477 1.162-2.367-.314-1.797-.255.736-.678-.067-.963 1.02-.498-.564-.525-.965-.886.386-.239 1.814.072 1.818-.205-4.582-.522-6.54-1.75-1.585-2.61-.466-.527 6.326-.618 5.47-1.849-2.018-1.243-14.467-.804-8.76-1.08 1.547-.123 4.735.086 5.81-.125C9.08 36.994.979 36.49.55 33.26c-2.936-2.224 11.314-2.53 12.342-3.02-2.335-.823-6.38-.175-6.967-1.974-.024.097 1.648-.188.866-.35-.095-.051-.148.065-.086.164-.139.055-.278-.245-.025-.365-.082-.061-.572-.103-.307-.167.334-.13-.277-.177-.226-.287.294-.378 2.025-.112 1.44-.92.366-.843 2.02-.458 2.125-1.056-.159-.023-.533-.188-.14-.308.394-.184-.205-.215-.379-.234 4.457-1.368 7.365-2.143 12.724-1.951-2.757-1.372-7.58-.038-10.932-.572 4.997-.95 10.921 1.389 12.435-1.936.758-.283 2.82-1.077.767-.9-1.796.53-2.927-1.43-3.647-.63-1.005.494.389-.368.19-.706-1.096-.192-5.312.817-4.128-.603.118-.53-.523-.036-.487-.144-.65-.796-.653-.374.23-.52-1.15-1.422 9.094-1.414 5.97-1.796-.675.14-1.489-.053-2.109-.13.19-.45 2.943-.34 2.084-.96-.27-.195-.718-.176-.044-.255.206-.278-.801-.192-.685-.22.312-.187.173-.267-.07-.339-2.43-1.505 5.54.302 5.926-1.203.058-.12 2.396.036 1.43-.298-.052-.04.085-.112.141-.15.041-.435.308 1.014.568-.048-.11.302.766.519.674.242-.015-.095-.398-.226-.127-.122.94-.19 2.069-.144 2.877-.296.397-.137-.286-.432-.29-.038-.007-.223-.601-.464-.78-.629.114-.217.973.522.96-.095-1.431-.897 4.917-.808 3.43-1.17-5 .11-6.846.74-11.552.011 3.805-.975 8.474-.093 12.205-.99 1.15-.587-1.014-.528-1.44-.47.73-.188 4.34-.321 2.551-.636.696-.245-.502-.203-.578-.574.433-1.1 5.003.424 6.591-.836-.296-.382 1.992.122 1.392-.433-.303.184.107-.192.202-.268-.013.561.171.64.404.103.785.37 3.274.01 4.896-.7-.067-.079-.797-.237-.619.107.123.074.055.17-.029.192-1.13-.937.143.009.42-.804.267-.025.712-.532.343-.05 16.504-1.706-2.831-.38-9.481-.6-1.148-1.486 6.57-.112 7.791-.984 1.553 1.104 2.783-1.296.546.055C43.02-.22 68.024 1.363 67.457.912c44.093 3.983 96.552 4.234 142.152 9.753 4.419 1.467-18.927 4.545-23.985 4.1 18.285 1.277 8.085-.619 40.824 2.273l-.004-.006Zm-2.081 12.903c.25-.372-.313-.41-.198-.112-.305.01.068.11.198.112Zm-1.985 1.754c-.065-.156-.295-.063-.342.12.154.007.295-.004.342-.12Zm-2.524 1.765c-.244 0-.241.061-.442.008-.026.287.39.12.442-.008Zm1.801 4.091c-.304.454.469.245.635.18-.079-.551-1.382-.192-.635-.18Zm-18.339 8.987c-.074-.01-.319-.146-.392.066.073.075.39.11.392-.066Zm-15.405 2.341c.319-.32-.148-.304-.198-.112.153-.067.121.089.198.112Zm11.922 1.045c-.03-.031-.235-.13-.245.005.074.065.209.198.245-.005Zm-7.687.482c-.135-.197-.156.055-.392.006-.135.357.334-.044.392-.006Zm-5.055-.482c.067.108.216-.07.344.05.075-.21-.377-.259-.344-.05ZM11.771 47.5c.017.15.08.05.114.004-.004-.099-.1-.027-.113-.004Zm3.75.363c-.065.008-.115-.015-.136-.089-.123.074.215.328.136.09Zm2.004-.323c.059-.089.128.042.159-.038.015-.154-.196-.118-.16.038Zm-.288-.984c.065.211.05.106.16.089-.002-.12-.095-.08-.16-.089Zm-6.085-9.204c-.01.18.098.04.136.046 0-.116-.106-.103-.136-.046ZM.48 32.633c.046-.243-.2-.148-.092.082.062 0 .234-.076.092-.082Zm.853 1.296c-.039.148.021.181.135.173-.01-.12-.086-.124-.135-.173Zm1.148 1.391c.024.095.216.218.204.007-.093.038-.092-.007-.204-.007Zm2.627-4.163c-.088.066.183.184.159.004-.036.01-.127.045-.159-.004Zm.593-.196c.008.126.204.314.25.093-.117.03-.173-.051-.25-.093Zm.587-2.616c-.118.264.024.374.19.216-.063-.184.13-.159-.19-.216Zm1.526-1.672c.047.148.222.064.261-.116-.119-.006-.226.004-.261.116Zm1.939-1.682c.186 0 .184-.057.338-.009.02-.272-.299-.114-.338.009Zm12.7-12.468c.058.01.245.139.302-.062-.056-.071-.3-.105-.302.062Zm2.676-3.228c.023.031.18.124.189-.004-.058-.062-.16-.188-.19.004Zm5.906-.463c.102.188.112-.05.3-.006.108-.333-.24.03-.3.006Zm3.88.46c-.051-.103-.166.066-.264-.048-.058.2.289.25.264.049ZM50.801 4.09c-.228.272.091.31.151.105-.117.066-.092-.084-.15-.105Zm-9.157-.994c.023.031.18.124.189-.005-.057-.06-.16-.188-.19.005Zm5.906-.463c.103.188.112-.05.3-.006.108-.334-.24.03-.3.006Zm3.88.46c-.051-.103-.166.066-.264-.048-.058.2.289.249.265.048Zm159.649 7.235c.47-.293-.551-.293-.298-.082-.458.008.11.082.298.082Zm-2.993 1.298c-.123-.118-.46-.038-.514.09.233.003.444-.003.514-.09Zm-4.469 1.311c-.039.212.587.089.664-.006-.366 0-.362.044-.664.006Zm-7.867-4.169c-.105.049-.401.015-.518.004-.078.18.803.06.518-.004Zm-2.071-.065c-.228-.04.21-.043.144-.13-.555.047-1.151.29-.144.13Zm24.393 12.36c.47-.294-.549-.294-.298-.082-.458.008.111.082.298.082Zm-27.189-5.898c-.102-.02-.056.147.024.11.029-.062.012-.091-.024-.11Zm-5.362-.596c-.18-.004-.181-.019-.016.062.012-.013.018-.032.016-.062Zm-25.893-7.735c-.16 0-.286.01-.328.042.107-.012.218-.027.328-.042Zm-8.17-.23c-.422-.021.457.27.707.211-.289-.053-.434-.152-.707-.21Zm-32.399-1.98c-.106.116-.182.494.003.31.431-.253.575-.333-.003-.31Zm-39.04-1.315c-1.218.228-.053.601.216.145-.694.186-.71.237-.216-.145Zm-4.64.72c.227-.06.234-.163.526-.14-.302-.164-.52-.424-.526.14Zm-.66-.486c.141.076.065-.101.052-.211-.076.013-.043.13-.052.211Zm-.382 1.493c-.112.082-.232-.186-.226.059.097.04.174.076.226-.06Zm-.72-.477c-.09.035-.274-.062-.301.06.154.016.234.208.3-.06ZM23.9 20.692c-.065.104.072.055.107.045-.021-.025-.053-.044-.107-.044Zm-10.258 9.779c-.058-.103-.2-.232-.296-.135.073.181.162.074.296.135Zm5.255 16.09c-.201.142-.085.243.067.13.01-.102-.105.02-.067-.13Zm.136-.04c.01.106.076.197.114.131-.02-.076-.041-.147-.114-.13Zm3.33 1.497c.183.25.292-.101-.02-.17.032.067.15.14.02.17Zm3.435.057c0 .123.127.104.159.047-.035-.203-.132-.203-.16-.047Zm.204-.08c.014.154.09-.006.181.047.078-.256-.087-.136-.181-.047Zm47.172-.236c.24-.195.415.033.744.008-.012-.38-1.025-.483-.744-.008Zm8.54 4.215c4.119.091 1.381-.183-1.196-.352-.535.745 1.833-.296 1.197.352Zm1.262.193c-.021 0-.043-.003 0 0-.015-.013-.04 0 0 0Zm-.846.116c.214-.091.448-.12.695-.12-.29-.01-.632-.062-.694.12Zm3.733-1.683c1.524-.095 4.09-.158 5.337-.382-2.507-.082-12.82-.502-12.7.549-1.176.435 5.899-.418 7.363-.167Zm1.341 1.003a.72.72 0 0 0-.294.044c-.049.159.52.218.294-.044Zm2.086.24c.71-.056-.015-.198-.215-.369.717-.331-.599-.078-.912-.076-.582.243 1.439.042 1.127.446Zm5.296-.306c.19.16.769.197.96-.05-.382-.089-.633.17-.96.05Zm.071-.126c-.26-.009.182-.16-.078-.17-.33.07-.164.303.078.17Zm.069-.57c.325-.372 2.141.264 1.288-.34-.23-.15-3.02.395-1.288.34Zm2.221.59c-.449.073-.863-.092-1.105.096.455-.013.952.515 1.105-.095Zm2.046-.78c.22-.064.454.143.442-.047-.19-.031-.342-.059-.442.047Zm18.518 1.955c-.241.006-.396.057-.44.173.205.036.632.152.44-.173Zm11.296-.102c-1.054.072-.655.427-.07.171-.425-.027-.038-.103.07-.17Zm-.152-.124c.218-.097.454.057.516-.089-.168.032-.579-.072-.516.089Zm8.686-1.054c-.508.091-2.219-.59-2.352.309.744-.184 1.562-.31 2.352-.309Zm5.245-.004c.723.14.528-.323-.003-.084.603.019.201-.01.003.084Zm19.915-.612c.121-.07.382.019.39-.18-.154.114-.328-.084-.39.18Zm21.437-1.936c.079.09.226-.032.244-.177-.154-.026-.2.074-.244.177Zm.394.049c.063.065.387.107.44-.009-.215-.11-.315-.156-.44.009Zm33.443-14.064c-.1-.176-.406-.19-.741-.18.093.3.547.321.741.18Zm-.111.128c-.156-.008-.13-.008 0 .04v-.04Zm-32.755-20.34c-1.055-.008-.745-.093-.996.074.363.049 1.635.41.996-.074Zm-66.902-9.62c.382-.065.51.2.742.01.134-.365-.86-.377-.742-.01Zm-1.674.975c.157.03.331.049.32.178.41.027-.122-.35-.32-.178Zm-3.446-.682c-.043.69.654.376.796.23 1.848.199.05-.346-.796-.23Zm-1.028-.831c-.47.074.203.147.398.202-.154.32-.764.21-.203.346 1.721-.223.874.043-.195-.548Zm-25.805.779c.305-.098.538.111.787.01-.211-.059-.626-.323-.787-.01ZM79.29 3.532c-.478.143.11.183.115.515-.236-.093-.166.088-.035.22 1.136-.586-.173-.174-.08-.735Zm.716 48.335c-.073-.192-.495-.291-.636-.18.096.15.33.192.636.18Zm-1.162-.783c-.004.063-.404-.064-.372.105.085-.013.566.03.372-.105Zm16.282-1.463c-3.19-.199-3.564.306 0 0Zm.37.044c.13-.013.373.116.444-.004-.14-.005-.316-.03-.443.004Zm43.692 1.645c.117.067.338-.024.366-.131-.233-.02-.301.054-.366.13ZM83.255 4.834c-.051.025-.154-.023-.201.006.058-.008.17.06.201-.006Zm-50.8 41.356c-.005-.034-.023-.042-.023-.084.236.019-.29-.184.023.084Zm47.824 3.14c.83-.138-.256-.227.16-.294 1.63.64 5.597-.517 4.496-1.187 1.729-.365-5.514-.276-3.263.195.77.485-1.691-.243-.259.17.014.144-.79-.056.06.267.73.517-4.2-.71-1.855.181.413.401-.868.57.66.667Zm1.725-44.344c-.02.032.034.057.058.068-.023-.01-.032-.08-.058-.068ZM31.387 45.947c-.003.19.07-.017.136.047-.032-.106-.077-.078-.136-.047Zm.262-1.306c-.056.278.272.217.441.236-.054-.247-.264-.251-.441-.236Zm55.624 3.696c.746-.18 1.522-.112 2.264-.038.53-.17-2.094-1.125-2.264.038Zm4.784-.253c-.147-.01-.43-.08-.478.135.236-.013.368.12.478-.135Zm61.207-3.557c.171-.157-.485-.29-.547-.057.155.06.39.048.547.057Zm-2.501.232c.264-.036 1.055-.064.576-.211.063.204-1.384.194-.576.21Zm1.051-.133c.597-.1.187-.064-.111-.251-.331.071-.022.352.111.25Zm.007-.553c.023-.076.056-.064-.028-.167-.397 0-.499.15.028.167Zm.353-.026a.712.712 0 0 1-.005-.141c-.222.008-.133.217.005.141Zm.345.31c.114.043.394-.071.142-.077-.056.071-.029-.005-.142.078Zm-.852-.742c-.166-.03-.535-.15-.573.086.195-.01.386-.044.573-.086Zm1.021.521c-.039.044-.138.042-.168.103.071 0 .339.009.168-.103Zm-.021.277c-.511-.163-.967-.292-1.484-.203.34-.013 1.231.561 1.484.203Zm-63.145 3.046c-.543-.068-.473.291-.877.061-.109.31 1.118.353.877-.061Zm3.452.65a1.2 1.2 0 0 1-.105.089c.062-.007.201-.076.105-.089Zm-.34.089c-.046-.047-.39-.26-.501-.072.133.004.326.05.502.072Zm-.445-.157a1.312 1.312 0 0 0-.342.005c.115 0 .228-.002.342-.005Zm-13.273-.62a20.89 20.89 0 0 1-.38.108c.196.092.698-.083.38-.108Zm16.02 1.978a.345.345 0 0 0-.167.089c.089.02.257-.07.166-.09Zm-15.798-1.157c-.07.015-.226-.122-.296-.002.216.17.251.143.296.002Zm-.508-.034c-.015.015-.033.028-.045.047.027-.02.09-.01.045-.047Zm-.152.131c-.188-.612-.256-.183-.634-.18.008.218.354.174.634.18Zm.134-.414c1.835-.578.523-.314-.525-.194-.84.215.332.218.525.194Zm-.224-.358c.01.139.245.073.142-.038-.05.01-.087.037-.142.037ZM32.316 46.01a19.49 19.49 0 0 1-.082-.026c.01.12.103.135.082.026ZM86.96 5.263a.206.206 0 0 0 .058.118.22.22 0 0 0-.058-.118Zm23.912-.298c.158.017.332.146.433-.066-.18.003-.395-.014-.433.066Zm.509-.023c.027.078.292.07.225-.032-.045.042-.067.078-.225.032ZM83.128 49.766c.043.192.523.04.743.095-.145-.133-.545-.249-.743-.095Zm-4.982 1.427c.534.005-.506-.166-.695-.071.204.048.44.067.695.071Zm3.792-.432c-.097-.057-.445-.07-.442.046.129-.025.436.046.442-.046Zm-.79.855c.153-.028.487.046.516-.047-.281.034-.491-.194-.516.047Zm-2.938-.085c-.266.085-.773.061-1.065.055.502 1.172 3.046-.272 1.065-.055Zm-.035-3.967c-.34-.255-.863.1-.457-.327-1.374.334-.517.243.457.327ZM53.407 4.27c.01.011.023.022.032.034-.003-.031-.012-.038-.032-.034Zm.259.083c.08.017.12-.026.15-.083-.061.009-.149-.04-.15.083Zm.245-.083c-.041.032.07.093.13.074.027-.124-.076-.057-.13-.074Zm25.085-.637c-.065.021-.13.042-.193.065.07.009.156.062.193-.065Zm-.654.222c.072 0 .13-.02.15-.053a3.439 3.439 0 0 0-.15.053Zm5.476.857c-.151.114-.244.12-.526.12.154.065.542.046.526-.12Zm30.671.77c-.418.555.603.357.85.01-.436.066-.366.01-.85-.01Zm67.814 9.154c.799-.268.23.22 1.476.027-.02-.105-1.966-.272-1.476-.027Zm-12.746 35.888c-.159.007-.263.078-.292.234.192.123.395.083.292-.234Zm-.835-.1c-.03.28.439.326.443.166-.118-.091-.286-.123-.443-.165Zm-12.802-.238a4.413 4.413 0 0 1-.663.007c.224.162.447.133.663-.007Zm-11.738 1.086c-.081-.045-.204.063-.266.082.138.095.564-.013.266-.082Zm-.034-.08c.157-.136-.392-.102-.459-.005.168.025.315.019.459.004Zm-4.14.409c.139-.097.672.118.737-.091-.316.068-.572-.076-.737.09Zm.436-.26c-.301-.067-.455-.13-.664.006.095.049.584.08.664-.006Zm-1.472.184c.182.247.812.05.961-.009-.306.003-.699.114-.961.009Zm.218-.173c-.275-.13-.449-.18-1.107.052.386-.025.853.017 1.107-.052Zm-5.165.215c-.32.04-.41-.034-.514.089.166-.032.578.071.514-.089Zm-.957.053c.174-.028.342-.06.364-.173-.181-.009-.27-.034-.364.173Zm-1.841.27c-.166.272.333.11.445.038-.225.032-.219-.072-.445-.038Zm-.294.002c-.631.017-.167.256.001.085-.089-.009-.047-.047-.001-.085Zm-14.68.64c.067.285.687.19.669.122-.177-.067-.43-.09-.669-.122Zm-15.845-1.512c.176-.027.537.049.59-.048-.304-.01-.461-.16-.59.048Zm-1.82-1.722c-1.065.06-2.146-.207-3.184.038 1.003.025 2.27.58 3.184-.038Zm-2.175 1.418c.128.076.29-.017.292-.13-.141.018-.318.018-.292.13Zm-3.606.54c-.304.208.938.265 1.48.157-.606-.171-1.106.019-1.48-.156Zm-.517.09c-.576.086-1.804-.144-2.052.177.394-.173 2.358.207 2.052-.178Zm-1.399.352c-2.268-.055.617.306.983-.047-.075-.06-1.332-.177-.983.047Zm-11.264.57c-.088-.078-.251-.076-.334.006l.334-.006Zm-5.382-4.412c.5-.482 3.07.101 2.167-.583-.716.458-1.396-.414-2.168.583ZM38.815 8.989c-.032-.12-.14-.051-.16.006.053-.002.108-.006.16-.006Zm-.604-1.246c.066-.004.044-.021 0-.01v.01ZM53.318 3.92c.04-.002.073-.025.103-.084-.047.016-.087.04-.103.084Zm1.795.348c.151.024.297.013.45-.002-.148 0-.297 0-.45.002ZM64.9 2.516c.122-.006.202-.074.223-.224-.163-.13-.299-.046-.223.224Zm.64.095c.039-.236-.326-.327-.34-.156.091.086.22.116.34.156Zm9.739.847c-.073.135-.014.278-.062.373.122-.07.156-.2.062-.373Zm-.185.175c-.051-.1-.204-.118-.207.023.062.07.165.093.207-.023Zm1.412.15c-.09-.032-.227.01-.264-.104-.21.328.105.104.263.104Zm1.252.3c.332.114.786.02 1.083-.186-.359.114-.746-.02-1.083.186Zm2.548-.44c.055.09.07.254.19.106.043-.163-.161-.23-.19-.106Zm2.863.21c.123-.039.218.168.251.037-.157.013-.201-.17-.251-.038Zm.974-.13c-.118.047-.101.123-.163.155.078.061.114-.057.163-.154Zm2.095 1.852c.174-.027.323-.082.402-.184-.132-.276-1.051-.276-.402.184ZM111.323 3.8c-.127.31.387-.131.105-.068.149.032.016.08-.105.068Zm.271.112h.014c0-.015-.008-.005-.014 0Zm6.075.74c-.027-.008-.051-.016-.073-.02a.398.398 0 0 0 .073.02Zm50.368 3.429c.026-.004.06-.004.02-.009l-.02.009Zm22.781 7.192a2.28 2.28 0 0 0-.874-.01c.161.031.614.015.874.01Zm25.131 6.883c-.023-.051-.195 0-.247-.005.082 0 .165.002.247.005Zm-.868.204c-.123-.118-.46-.038-.515.089.233.004.445-.002.515-.089Zm-3.806 1.305c-.366 0-.361.044-.663.006-.04.211.586.089.663-.006Zm-11.4 1.712c-.109-.015-.047-.034-.131.068.423.048.481-.195.131-.068Zm3.775 1.756c.061.009.124.017.194.024-.035-.076-.132-.009-.194-.024Zm9.265.431c-.166.057-.286.167-.537.125.091.308.523.042.537-.125Zm1.276.264c-.069.065-.266.021-.343.006-.053.243.532.08.343-.006Zm-8.897 12.709a.538.538 0 0 1 .192-.306c-.195.006-.488.048-.192.306Zm-17.925 8.174c-.083-.095-.219.038-.291.12.105.12.267.017.291-.12Zm.194-.175c-.166-.015-.563-.167-.637.07.242.07.422-.045.637-.07Zm-1.124.192c-.496-.024 0 .247.147-.06-.322-.126-.47-.065-.147.06Zm-1.467.312c-.208.093-.379-.101-.488.125.092-.131.446.158.488-.125Zm-.538.01c-.203.003-.463.155-.637.011.12.334.539.068.637-.01Zm-.493-.219c-.351.027.148-.26-.248-.226-.693.408-.283.287.248.226Zm-2.789.393c.36-.15.599-.393 1.562-.429-.453-.078-1.724-.5-1.562.429Zm-.638-.102c-.213.055-.272-.044-.342.12.111-.044.384.098.342-.12Zm-.393-.164c-.176-.042-.192.053-.242.234.116-.038.227-.08.242-.234Zm-1.411.827c-.009-.194.184.026.243-.177-.144-.06-.482-.046-.243.177Zm-.247-.112c-.039-.194-.18-.11-.245.062.071-.032.254.063.245-.062Zm-1.17.425c-.112.044-.385-.095-.342.12.143-.13.301.078.342-.12Zm-.241.289c-.693.097-.434.572-.045.23-.282-.038-.024-.14.045-.23Zm.12 1.66c-.035-.25-.248-.284-.35-.453-.032.33.158.393.35.452Zm-.447-.393c-.107-.127-.166.05-.343.006-.054.247.404.238.343-.006Zm-.116-1.373c-.203.066-.269-.042-.392.066.073.076.39.11.392-.066Zm-.776.587c-.121-.006-.202.034-.243.118.071.087.255.051.243-.118Zm-.68.414c-.032-.317-.394.063-.25-.28-.466.164.041.343.25.28Zm-1.75 1.121c.137-.253-.164-.32-.197-.112.157.33.75.1.197.112Zm.49-.01c.153.046.213.162.343-.007-.153-.046-.213-.165-.343.006Zm.136-.919c.242.085.504-.16.832-.129-.394.024-.809-.492-.832.13Zm-4.263.078c.291-.175.635.053.928-.247-.301 0-1.012-.255-.928.247Zm-1.363.712c.618.116-.039-.39-.148-.112.134-.01.252-.015.148.112Zm.578-.756c1.526.3-.159-.547-.732.243.367.232.547.03.732-.243Zm-.539.01-.001-.173c-.3.043-.292.228.001.173Zm-1.361.826c-.187-.503-.369-.112-.098 0-.321.015-.111.16.098 0Zm-1.034-.382c-.082.129.083.103.098-.06-.106-.14-.298-.107-.098.06Zm-.242.177c.202-.01.119-.285.044-.403-.088.167-.078.181-.044.403Zm-.859-1.934c-.505.06-1.473-.046-1.614.317.346-.124 1.245-.034 1.614-.317Zm-.531.585c.068-.274-.301-.2-.295-.053.059.066.174.062.295.053Zm-.342.178c.033-.222-.08-.17-.198-.17-.012.15.104.146.198.17Zm-.283.749c.115.101-.103-.361-.198-.112.157-.04.032.376.198.112Zm-.65.439c-.055-.027-.275-.082-.369.004.112.049.314.146.369-.004Zm-11.586.359a.606.606 0 0 0-.661.133c.246-.053.561-.114.661-.133Zm-7.615-.357c.1.08.327-.05.519.038.113-.156-.568-.192-.519-.038Zm-14.245.26c4.663-.414 39.444-.102 29.17-1.09-7.498.083-22.768-.002-29.17 1.09Zm-.705 1.315c-.051-.186-.373-.209-.526-.334-.049.243.237.29.526.334Zm-.673-.291c-.162-.095-.251.038-.516.004-.081.181.608.175.516-.004Zm-.175-1.016c-.306.049-.407-.032-.59.049.109.055.588.08.59-.049Zm-1.171.435c-.183-.004-.305.025-.366.089.108.063.386.038.366-.089Zm-1.025.304c-.047-.234-.592.047-.375-.209-.704.152.163.253.375.21Zm-2.636.83c.208-.228-.306-.203-.297-.083.313.258 1.086.064.297.083Zm.738-.007c.231.034.322.12.517-.004-.231-.034-.321-.122-.517.004Zm.204-.68c.482.068 1.919-.27.516-.088.018-.19-.587-.224-.516.089Zm-6.425.058c.424-.136.923.048 1.399-.182-.407.05-1.346-.27-1.399.182Zm-2.053.527c.916.09-.037-.29-.224-.082.202-.008.379-.01.224.082Zm.88-.559c.168.036 1.447.11.649-.049-.962-.41-2.578.782-.649.049Zm-.821.006c.059-.234-.427-.074-.369.004.122 0 .246-.002.369-.004Zm-2.051.612c-.183-.325-.645-.151-.148 0-.472.013-.161.117.148 0Zm-1.559-.282c-.134.06.105.105.148-.045-.141-.095-.452-.09-.148.045Zm-.365.13c.306-.008.18-.21.065-.297-.132.124-.116.135-.065.297Zm-2.096-.998c.033-.28-.496-.078-.443-.038.087.048.261.046.443.038Zm-.513.13c.03-.225-.19-.092-.299-.124-.02.112.157.108.299.125Zm-.428.556c.195.066-.236-.262-.298-.082.238-.03.047.278.298.082Zm1.742-1.119c-.775.093-1.709-.133-2.428.232.777-.107 1.671.005 2.428-.232Zm-3.095.24c-.233.085-.495-.063-.587.134.181-.053.576.015.587-.133Zm-9.323-.637c.129-.04.37-.017.44-.088-.207.067-.618-.3-.44.088Zm-.813.007c.933-.811 3.911.076 4.98-.446-.121-.13-5.832-.477-4.98.446Zm-6.702.356c.808-.137 8.913.315 4.59-.215 2.07.283.695-.83.459-.245-.073.135-5.723-.194-5.049.46Zm-.532-.29c-.112-.05-.314-.147-.369.003.046.024.353.095.37-.004Zm-5.31.217c1.342.213 4.788.012 4.552-.045-.2-.916-4.426.04-3.997-.37-.543.115-1.902.457-.555.415Zm-2.17.103c.189-.06-.687-.186-.41.023.167-.008.322-.023.41-.023Zm-.65.032c-.15-.15-.23-.178-.38-.085.036.066.194.085.38.085Zm-.696-.068c-.02.1.082.034.12.047.002-.04-.052-.047-.12-.047Zm-4.979-.036c.035-.036.206-.015.185-.093-.26-.04-.761.072-.185.093Zm-1.18-.031c.26-.009.589.02.707-.068-.655-.097-1.245-.363-.708.068Zm-.875-.119c1.623-.517-1.78-.384-2.325-.215-.314.35 1.897.057 2.325.215Zm-18.177 1.22c.28.03.09-.33.43-.25-.244-.28-1.493.12-.43.25Zm-5.402-.83c.786.588 1.934-.128 2.37-.48-.607.118-2.2-.587-2.37.48Zm-8.21-4.388c1.56-.657.965-.545.45-1.277-.796-.11-1.106.935-.45 1.277Zm-15.996.542c.01-.128-.072-.09-.112-.13-.024.128.035.143.112.13Zm-.095.547c-.049-.093.006-.09.068-.082-.04-.203-.361.163-.068.082Zm-.268-.557c.221.407.413.327.093-.125-.522-.093-.456.435-.093.125Zm-.615.023c.17-.122.281.106.252-.205-.181.062-.635-.13-.252.205Zm-1.552.718c.327.004.095-.496.115-.08-.042.017-.136-.062-.115.08Zm-.113-.087c-.06-.126-.088-.04-.16-.004.061.125.088.038.16.004Zm-.062-.68c.034-.21-.121-.352-.16-.088-.367-.188-.042.158.16.089Zm-.34-.137c.039-.07.019-.249-.067-.213.066.256-.102-.025-.115.21.094-.033.078-.005.181.005v-.002Zm-.385-.223c-.018-.064-.056-.093-.113-.09-.006.126.08.153.113.09Zm-.292-.475c-.056-.08-.087 0-.181-.049 0 .129.148.103.181.049Zm-.077.973c-.081.032-.109-.1-.159-.004-.028.181.185.188.16.004Zm-.366.287c.09-.044.177-.09.162-.334-.047.125-.147.15-.162.334Zm.103-1.355c.02-.16-.107-.057-.159-.089.018.148.092-.008.159.089Zm-.588-.355c-.035-.137-.099-.182-.114-.047-.004.093.08.022.114.047Zm-.25-.05c.041.12.073.077.047-.085-.133-.044-.145.205-.047.084Zm-.52-.355c-.027-.085-.005-.212-.112-.173.008.111.059.145.112.173Zm-.136.04c-.032-.123-.06-.049-.159-.089-.02.16.107.057.159.089Zm-.5-.184c-.158.1-.23.167.045.171.111-.85-1.45-.239-.044-.17Zm-.908-.07c-.094-.11-.235-.206-.316-.179.047.22.048.154.316.18Zm-.274.119c-.08.105-.201-.007-.295-.009.046.06.24.256.295.009Zm-.32.076c-.049-.167-.13-.024-.226-.091.02.209.183-.004.227.09Zm-.793-.277c-.053-.082-.198-.074 0-.084-.168-.235-.222.225 0 .084Zm-.41.032c-.033-.062-.097-.16-.136-.089.012.101.086.18.136.089Zm.07-.17c-.035-.172-.218-.06-.295-.05.098.02.183.104.295.05Zm-4.336-9.11c.44.135.56.242 1.362.166-.305-.572-3.01-.192-1.362-.167Zm-.682-.02c-.146-.263-.502-.128-.681-.147.151.323.455.052.68.147Zm10.67-16.574c.211-.012.624-.367.875-.567-.37-.051-.63.386-.876.567Zm2.64-1.452-.318.021c.105.066.214.04.318-.021ZM38.36 9.016c-.028.002-.056.006 0 0-.028-.006-.069-.04 0 0Zm-.412-1.212c.09-.076-.07-.048-.112-.046a.18.18 0 0 0 .112.046Zm.445-.261c.004 0 .003 0 0 0Zm.576-1.22c.058.01.245.139.301-.062-.056-.072-.3-.105-.3.061Zm12.247-2.08c.065.09.17-.036.224-.114-.082-.116-.206-.015-.224.114Zm-.148.169c.128.013.432.158.488-.066-.186-.067-.325.043-.488.066Zm.863-.184c.386.021 0-.236-.111.057.252.123.357.06.111-.057Zm1.54-.308c.129.023.168-.1.288-.165-.117.017-.244.12-.288.165Zm2.514-.165s.007.002.006 0h-.006Zm.496.045c.09-.02.216.086.263-.062-.076.036-.251-.063-.263.062Zm.407.03c.037 0 .072.018.081-.043a.549.549 0 0 0-.081.042Zm.98-.61c.009.185-.136-.03-.186.168.131.065.367.021.186-.169Zm.189.105c.028.181.134.11.187-.06-.054.032-.195-.059-.187.06Zm.9-.404c.084-.042.294.091.263-.116-.11.125-.232-.074-.263.116Zm.184-.276c.528-.09.334-.543.035-.22.216.036.02.133-.035.22Zm-.092-1.581c.026.238.19.27.267.43.025-.314-.12-.373-.267-.43Zm.343.373c.083.123.127-.048.263-.006.043-.234-.31-.228-.263.006Zm.09 1.31c.155-.064.207.04.3-.062-.056-.072-.3-.103-.3.061Zm.595-.56c.094.006.156-.032.188-.114-.055-.083-.197-.049-.188.114Zm.523-.395c.025.302.301-.061.193.268.352-.137-.003-.33-.193-.268ZM61.944.724c-.105.217.114.323.152.105-.103-.306-.589-.099-.152-.105Zm-.376.008c-.118-.044-.163-.156-.263.007.118.044.163.156.263-.007Zm-.103.876c-.186-.08-.387.152-.638.123.323.004.64.443.638-.123Zm3.274-.074c-.23.165-.494-.044-.712.235.254.019.8.21.712-.235Zm1.047-.677c-.48-.108.036.37.113.105-.103.01-.193.015-.113-.105Zm-.445.72c-.64-.401-.664.293.153.16.537-.595.212-.678-.153-.16Zm.415-.009c-.06.222.187.18.187-.004-.062 0-.125.002-.187.004ZM66.8.778c.139.48.288.127.075 0 .25-.014.088-.151-.075 0Zm.794.366c.059-.14-.068-.08-.076.057.086.14.227.095.076-.057Zm.186-.169c-.156.01-.093.272-.034.384.068-.158.06-.173.034-.384Zm1.069 1.288c-.06.234.22.213.227.05-.046-.06-.133-.059-.227-.05Zm.26-.171c-.026.181.044.175.153.16.009-.143-.08-.14-.153-.16Zm.22-.714c-.085-.105.061.344.15.106-.12.038-.024-.36-.15-.106Zm-.888 1.44c.387-.057 1.13.044 1.238-.302-.266.118-.956.032-1.239.302Zm1.577-.308c.118-.11.252.08.3-.171-.093.067-.294-.02-.3.17Zm.853-.931c-.183-.163-.304.019-.486.103.205.266.264-.164.486-.103Zm1.721 2.356c.718.547 1.184-.308 2.228.133.547-.418-1.815-.608-2.228-.133Zm6.013-1.07c-.605.118-4.56-.315-2.421.227-1.906.537 2.208.532 2.421-.228Zm4.702-.053c.07.071.259-.049.375-.045-.138-.008-.284.028-.375.045Zm.68.126c.566.467-4.555-.538-4.31.116 2.116.68 3.432.828 5.171.165.898-.382-.603-.264-.862-.279v-.002Zm1.918-.02c-.033.02.06.003.091.003-.021-.012-.05-.019-.09-.004Zm6.068-.094c-.012.492 1.859.285.519-.05 1.048-.13-.055-.097-.519.05Zm1.125.093c.185.135.127.095-.04.148.579.063.757-.055.04-.148Zm2.63-.506c.037.118-.404-.03-.367.088.38.097.91.163.367-.088Zm16.638.74c-.212-.006-.375.015-.442.09.098.054.392.006.442-.09Zm-.23-.295-.295.002c-.055.165.357.16.295-.002Zm-.584.26c-.404.124-.818-.294-1.177.18.315-.094 1.862.24 1.177-.18Zm-1.096.435c.346-.047.763.337.98-.06-.383-.01-.728-.01-.98.06Zm1.622.105c-.152.066-.196.1-.322.167.195.017.396.038.322-.167Zm.528.175c.238.091.484.106.744.01-.281-.252-.411-.077-.744-.01Zm5.124.832c.1.034.236-.095.247-.167-.264 0-.202.085-.247.167Zm5.38-.167c-.291.15-.206.125.149.085-.019-.047-.146-.028-.149-.085Zm-.032.211c-1.33-.34-1.655.56-.469.387.681-.17 1.779-.427.469-.387Zm1.35.098a.397.397 0 0 1 .064.118c.063-.142.05-.123-.064-.118Zm31.383 2.02c.132-.009.258.078.373-.036-.114.013-.241.025-.373.036Zm.661-.294c.208-.02-.181.159.079.17.085-.121.675.041.661-.134-.253-.017-.56-.063-.74-.036Zm.507.387c.172-.01.355-.005.538.025.029-.213-.479-.095-.538-.025Zm1.054-.02c.348.136.797-.016 1.218-.018-.289-.07-.723-.021-1.218.019Zm1.618-.267c.212-.009.58.111.74-.007-.162-.023-.608-.095-.74.007Zm2.653-.066c-.951.158-1.471.26-2.553.275-.08.082 3.076.51 2.553-.275Zm6.036.959c.018.03.26.168.532.006-.078-.302-.37-.104-.532-.006Zm.104.42c.145.095.347.03.452-.02a1.311 1.311 0 0 0-.452.02Zm17.849 6.652c-.254-.01-.508-.02-.759-.028.243.097.501.12.759.028Zm4.723.557c.141.087.339 0 .483.025-.092-.044-.269-.042-.483-.025Zm18.885.528c-.228.042-.39.122-.736.093.112.232.735.025.736-.093Zm1.75.194c-.094.049-.363.015-.469.004-.071.18.731.06.469-.004Zm7.749 4.163c-.332 0-.328.044-.603.006-.035.212.534.089.603-.006Zm3.388-1.389c-.147.049-.369.053-.398.173.25-.017.543.036.398-.173Zm2.319-1.252c.284-.025.418.144.6-.133-.324-.15-.433.068-.6.133Z" fill="#D0000A"/><path d="M59.726 33.581c-1.207 3.492-7.622 6.108-10.844 6.257-1.807.059-2.86-1.658-2.437-3.043-.21-.392-.3-.873-.36-1.325-.27-1.626-.33-3.282-.39-4.939-.028-2.89.065-5.75.096-8.641-.42-.332-.661-.934-.751-1.476a2.742 2.742 0 0 1 .483-1.927c1.054-1.385 3.223-1.955 4.879-1.954 2.65.001 5.299.997 6.893 3.196.662.934 1.113 2.108 1.082 3.283-.091 1.806-1.266 3.25-2.652 4.274 1.866.693 3.823 1.99 4.183 4.097.15.723.059 1.506-.182 2.198Zm-9.064.988.09.271 1.265-.45c1.114-.452 2.229-1.023 3.072-1.865.12-.09.211-.211.302-.331-1.264-1.085-3.583-1.177-5.149-1.268.03 1.054.09 2.107.21 3.161 0 .06.18.392.21.482Zm-.385-10.388-.031 1.144c.783-.421 1.566-.842 2.32-1.354.451-.3.963-.661 1.295-1.143-.06-.301-.27-.572-.512-.783-.722-.723-2.016-.995-3.01-.996 0 1.054-.032 2.078-.062 3.132Zm24.216 13.535c-1.265.782-2.77 1.022-4.216 1.02-2.92 0-6.413-.997-7.947-3.708-.902-1.566-1.112-3.614-.78-5.42.635-3.402 3.92-7.526 7.593-7.523.633 0 1.295.151 1.867.392 2.98 1.267 4.543 5.212 3.156 8.162-1.085 2.348-3.795 3.04-6.144 3.249a7.983 7.983 0 0 0 2.228.332c.512 0 .993-.03 1.475-.15.271-.06.512-.24.783-.33.181-.06.362-.06.573-.06.843 0 1.746.483 2.076 1.236.03.15.09.27.12.391.301.753-.06 1.958-.784 2.409ZM66.37 29.37c.933.09 1.927.031 2.86-.24.15-.06.723-.21.813-.36.242-.301.091-.963-.059-1.295-.12-.24-.481-.783-.752-.843-.06-.03-.331.06-.392.09-1.144.45-1.988 1.534-2.47 2.648Zm21.517 5.855c-.453 2.71-5.211 4.333-7.47 4.331-1.234 0-2.77-.483-3.401-1.628-.873-1.626.423-3.312 2.02-3.31.39 0 .842.12 1.264.391.06.06.33.03.421 0 .753-.09 1.476-.39 2.139-.69-1.445-1.176-3.13-2.11-4.214-3.586-1.835-2.5-1.501-6.144 1.3-7.467 1.174-.541 2.53-.691 3.824-.69.843 0 1.626.151 2.439.363.301.09.512.3.752.482.482.392.843 1.446.692 2.048-.332 1.023-.965 1.806-2.17 1.865-.421 0-.842-.15-1.294-.241-.392-.06-1.807.089-2.168.209.03.392.24.753.511 1.054.632.633 1.384 1.115 2.137 1.658 1.053.753 2.137 1.627 2.798 2.772.422.692.602 1.626.42 2.439Zm8.884 1.21c.33 1.566-.905 2.74-2.23 2.739-1.595-.001-2.257-1.387-2.467-2.742-.18-1.144-.21-2.319-.239-3.463 0-.572.031-1.114.032-1.686-.09.03-.181.03-.272.03-.39.03-.782-.03-1.144-.182-1.535-.633-1.985-2.62-.78-3.764.301-.3.693-.481 1.114-.602.392-.09.813.031 1.205-.029h.18l.092-1.264c.151-1.536.273-3.041.394-4.577.09-1.054.182-2.138.604-3.101.12-.271.362-.451.573-.662.361-.331.843-.481 1.355-.481 1.174 0 2.228.875 2.287 2.079.06.512-.121.963-.181 1.445-.212 1.476-.273 2.92-.425 4.366-.03.572-.09 1.174-.151 1.746.18-.03.36-.03.511-.03 2.5-.088 3.311 3.285 1.052 4.307-.332.15-.723.21-1.115.21-.24 0-.512.03-.752.06-.061.933-.062 1.897-.032 2.86 0 .723.059 1.476.179 2.199.03.06.18.482.21.542Zm19.108 1.819c-.301 1.083-1.265 1.625-2.199 1.624-1.776-.001-2.408-1.477-2.618-2.952-.089-.693-.149-1.386-.209-2.078-.358-5.27-.024-10.54.431-15.778.092-1.355 1.176-2.198 2.29-2.197.602 0 1.204.272 1.686.814.541.633.752 1.386.54 2.199 0 .03-.09.24-.09.3-.364 4.035-.577 8.13-.459 12.195.059 1.325.088 2.65.298 3.945 0 .09.241.482.271.572.15.422.18.904.059 1.355Zm9.68-1.801c.331 1.566-.905 2.74-2.23 2.739-1.596-.001-2.257-1.387-2.467-2.742-.18-1.144-.209-2.319-.239-3.463.001-.572.031-1.114.031-1.686-.09.03-.18.03-.271.03a2.48 2.48 0 0 1-1.144-.182c-1.535-.633-1.985-2.62-.78-3.764.301-.3.693-.481 1.114-.602.392-.09.813.031 1.205-.029h.18l.091-1.264c.152-1.536.273-3.041.395-4.577.091-1.054.182-2.138.604-3.101.121-.271.362-.452.572-.662.362-.331.844-.481 1.356-.481 1.174 0 2.227.875 2.287 2.079.06.512-.121.963-.182 1.445-.211 1.476-.272 2.92-.424 4.366-.03.572-.091 1.174-.152 1.746.181-.03.362-.03.512-.03 2.5-.088 3.311 3.285 1.052 4.307-.332.15-.723.21-1.115.21-.241 0-.512.03-.753.06-.06.933-.061 1.897-.031 2.86-.001.723.059 1.476.179 2.199.03.06.18.482.21.542Zm17.097 1.305c-1.265.782-2.771 1.022-4.216 1.021-2.921-.001-6.413-.997-7.947-3.708-.903-1.566-1.112-3.614-.78-5.42.635-3.403 3.919-7.526 7.593-7.524.632 0 1.295.152 1.867.393 2.98 1.267 4.543 5.212 3.156 8.162-1.085 2.348-3.796 3.039-6.145 3.248a7.994 7.994 0 0 0 2.228.333c.512 0 .994-.03 1.476-.15.271-.06.512-.24.783-.33.181-.06.361-.06.572-.06.843 0 1.746.482 2.077 1.235.03.151.09.272.12.392.301.753-.061 1.957-.784 2.408Zm-8.125-8.346c.934.091 1.927.032 2.861-.239.15-.06.723-.21.813-.36.241-.301.091-.964-.059-1.295-.121-.241-.482-.784-.753-.844-.06-.03-.331.06-.391.09-1.145.451-1.988 1.535-2.471 2.649Zm33.953 7.85a2.253 2.253 0 0 1-2.109 1.445c-.963-.001-2.047-.785-2.197-1.778-.15-1.145-.059-2.319-.058-3.463.031-1.265-.087-4.938-.9-5.902-.451.18-.753.662-1.054 1.053-1.206 1.775-1.719 3.913-2.322 5.93-.393 1.295-.996 2.439-2.531 2.438a2.344 2.344 0 0 1-2.017-1.146c-.421-.693-.451-1.566-.51-2.379-.09-1.837-.088-3.734-.418-5.54 0-.06.03-.151-.03-.121-.784.752-1.326 1.745-1.809 2.739-.814 1.716-1.267 3.582-1.78 5.419-.452 1.324-.905 2.619-2.591 2.618-1.746-.001-2.348-1.447-2.527-2.923-.48-2.98-.268-6.052-.115-9.063.061-1.054-.029-2.228.483-3.162.453-.782 1.206-1.173 2.079-1.172 1.626 0 2.769 1.627 2.045 3.193-.03.03-.06.391-.03.36 1.115-1.504 2.923-3.038 4.94-3.037 1.927 0 3.041 1.387 3.521 3.133 1.085-1.535 2.712-2.889 4.699-2.887 3.102.002 4.515 2.773 5.026 5.513.3 1.747.389 3.493.358 5.27l-.002 2.288c0 .392 0 .813-.151 1.175Zm12.883-1.979c-.453 2.71-5.212 4.333-7.47 4.332-1.235-.001-2.77-.484-3.402-1.629-.872-1.626.424-3.311 2.02-3.31.391 0 .843.12 1.264.392.061.06.332.03.422 0 .753-.09 1.476-.39 2.138-.691-1.444-1.175-3.13-2.11-4.213-3.586-1.835-2.5-1.502-6.144 1.299-7.467 1.175-.541 2.53-.69 3.825-.69.843 0 1.626.152 2.439.363.301.09.511.301.752.482.482.392.842 1.446.691 2.048-.331 1.024-.964 1.806-2.169 1.866-.421 0-.843-.151-1.294-.242-.392-.06-1.807.09-2.168.21.029.39.24.752.511 1.054.632.632 1.384 1.115 2.137 1.657 1.053.754 2.136 1.627 2.798 2.772.421.693.601 1.626.42 2.44Z" fill="#fff"/></svg>