<svg xmlns="http://www.w3.org/2000/svg" fill="none" viewBox="0 0 308 493"><path fill="#2C2C2C" d="M182.36 479.361c.449-.023.974-.085 1.327.059.292.12.63.627.516.772-.403.52-.952.989-1.526 1.413-.38.281-.896.453-1.386.688 1.081 1.443 3.096.364 4.304.979.025.568-.388.679-.863.719-5.919.5-11.838 1.027-17.761 1.483-3.173.244-6.329.214-9.492.992-2.04.5-4.307.39-6.473.499-5.356.269-10.713.505-16.068.759-8.094.383-16.188.821-24.281 1.137-5.582.218-11.166.246-16.749.404-7.17.202-14.34.384-21.511.702-5.582.246-11.16.748-16.739 1.027-9.797.491-19.596.901-29.395 1.34-4.103.184-8.205.378-12.308.509-1.122.035-2.264-.076-3.354-.247-.47-.074-.832-.476-1.398-.825 1.04-1.179 2.005-2.266 2.96-3.358.308-.352.334-.791.11-1.852.713-.132 1.494-.171 2.138-.428.582-.232 1.015-.703 1.569-1.11.552.029 1.115.038 1.67.089 3.931.363 7.875.54 11.878.311 4.674-.269 9.35-.456 14.026-.651 8.323-.345 16.647-.692 24.971-.992 6.603-.238 13.206-.432 19.808-.597 6.15-.154 12.298-.218 18.448-.365 5.925-.142 11.855-.256 17.781-.53 14.821-.687 29.642-1.454 44.463-2.2 4.445-.224 8.89-.489 13.335-.727ZM67.526 7.039c2.45-.36 5.024-.099 7.568-.023 6.044.178 12.08.545 18.124.754 2.79.095 5.589-.041 8.384-.004 2.799.037 5.609.055 8.393.263 6.592.492 13.197.412 19.799.53 8.163.146 16.324.443 24.474.924 5.245.31 10.512.368 15.762.624 10.174.498 20.365.706 30.512 1.653 5.217.486 10.513.405 15.77.613 8.504.336 17.007.657 25.505 1.073 3.129.154 6.224.595 9.198 1.51.82.251 1.742.335 2.626.386 5.587.316 11.174.615 16.765.893 5.032.251 10.075.38 15.096.728 3.786.263 7.547.773 11.311 1.216.756.089 1.48.369 2.13.539.547 1.642-1.124 1.876-2.256 2.552.222.456.395.868.62 1.261.566 1 .012 1.776-.697 2.532-.068.073-.245.867-.23 1.185h-4.578c.486.95 1.44.647 2.119.855.727.224 1.511.33 2.276.462 1.34.23 2.585.618 3.56 1.445.216.182.326.45.504.708l-1.269.917c1.74 1.108 3.784.382 5.746.884-.172.368-.242.72-.472.967-.489.524-1.85.32-1.716 1.387l-2.27.424c1.963 1.127 4.209 1.756 4.553 3.867-.596.09-1.536 0-1.939.34a2.607 2.607 0 0 1-3.057.285c-2.031-1.192-3.758-.702-5.567.22-.371.19-.806.292-1.465.525l1.593 1.076-1.041.343h13.426V427.01c.153.025.305.05.457.077-.152.014-.304.032-.457.05v22.326h-18.408l-.463 1.625c.36.188.603.413.894.447.991.115 1.997.207 3.005.226 2.029.039 4.05-.139 5.997.553.923.329 2.223.065 3.35.089.377.009.75.078 1.404.152-1.778.824-1.781.803-4.687 1.047-1.479.124-2.955.316-4.425.514-1.561.209-3.204.031-4.887.804.202.454.442.9.597 1.364.164.491.249 1.002.348 1.409 1.17.852 2.561.828 3.902.974.989.108 1.986.315 2.874.637.375.135.481.68.82 1.213-1.018.153-1.767.315-2.524.372-11.394.863-22.791 1.702-34.185 2.576-2.146.164-4.28.485-6.424.687-3.64.343-7.28.725-10.925.948-5.816.355-11.636.582-17.453.891-1.815.096-3.626.33-5.441.429-5.587.303-11.175.574-16.761.852-1.931.096-3.883-.102-5.781.448-.412.119-.798.297-1.639.616.829.148 1.198.266 1.578.274 7.173.149 14.353-.112 21.542-.559 4.901-.305 9.809-.46 14.712-.732 8.211-.457 16.423-.963 24.633-1.432 4.893-.281 9.788-.531 14.805-.801-.263.205-.409.41-.545.411-2.1.031-4.061.658-5.909 1.324-1.958.707-3.921.97-5.969 1.106-2.621.173-5.241.353-7.862.546a28.66 28.66 0 0 0-2.043.243c-1.076.155-2.063.574-2.48 1.331-.282.51-.033 1.176-.021 1.871-2.455.578-5.093.58-7.683.756-6.156.418-12.32.656-18.478 1.045-2.842.18-5.674.581-8.516.817-2.846.237-5.701.491-8.548.565-6.741.174-13.442.891-20.159 1.42a657.719 657.719 0 0 1-24.942 1.499c-5.356.216-10.711.672-16.067.939-10.379.516-20.749 1.308-31.141 1.397-5.343.047-10.715.638-16.073.951-8.668.507-17.334 1.028-26.003 1.459-3.192.158-6.376.041-9.479-.534-.856-.158-1.8-.148-2.7-.11-5.705.243-11.407.502-17.111.781-5.133.251-10.268.619-15.4.777-3.869.118-7.735.001-11.598-.052-.776-.011-1.537-.205-2.213-.303-.703-1.497.973-1.881 2.062-2.629-.267-.409-.48-.781-.743-1.131-.665-.888-.173-1.676.479-2.458.062-.075.171-.843.128-1.142l4.65-.443c-.58-.85-1.521-.472-2.23-.603-.758-.141-1.564-.165-2.354-.216-1.382-.087-2.682-.333-3.746-1.019-.236-.152-.372-.393-.575-.62l1.206-.988c-1.868-.878-3.878.005-5.917-.278.142-.365.181-.703.393-.96.45-.542 1.85-.481 1.617-1.476.634-.173 1.266-.345 2.268-.62-2.095-.874-4.434-1.251-4.974-3.211.598-.143 1.56-.148 1.94-.509a2.819 2.819 0 0 1 3.079-.565c2.17.929 3.88.299 5.636-.748.359-.215.792-.354 1.44-.638l-1.716-.862 2.892-1.195c-3.205-.449-6.435-.152-9.274-1.016-.073-.688.456-.721.873-.726 3.981-.043 7.966-.086 11.945-.084 2.86.001 5.636-.338 8.334-1.28-3.183-.328-6.41-.038-9.583-.222-3.262-.189-6.515-.438-9.719-.658-.288-.933.341-1.344 1.219-1.386 1.931-.092 3.867-.098 5.797-.082 4.433.035 8.862.125 13.298.146 1.01.005 2.035-.18 3.093-.534-.641-.09-1.28-.263-1.926-.256-5.125.053-10.254.156-15.377.203-1.243.012-2.474-.166-3.717-.191-2.147-.041-4.298-.03-6.4-.041-.214-.505-.045-.751.55-.776 4.318-.181 8.622-.132 12.934-.14 6.131-.012 12.286.002 18.445-.642 2.82-.295 5.683-.195 8.526-.288.893-.029 1.788-.103 2.754-.442-.47-.124-.933-.359-1.407-.352-1.25.019-2.507.131-3.759.226-6.616.503-13.208.342-19.811.453-4.03.067-7.89-.522-11.855-.619-.56-.014-1.156-.063-1.647-.234-1.618-.562-3.296-.465-4.958-.213-.301.339-.56.663-.884.94-.036.026-.578-.184-.707-.364-.262-.363-.403-.781-.655-1.305.83-.079 1.56-.143 2.288-.22.793-.085 1.588-.189 2.38-.278.733-.082 1.614.304 2.133-.473a6.506 6.506 0 0 0-1.374-.697H5.958v-.698c-.957-.104-1.948-.18-2.942-.312.378-.366.518-.627.737-.687.652-.176 1.344-.206 1.284-.99-.021-.277.37-.604.62-.885.13-.148.23-.29.301-.426v-.947c-.145-.231-.403-.444-.764-.642-.154-.085-.188-.294-.38-.622l1.144-.532v-.256l-.469-1.316c.154-.147.298-.268.469-.377v-8.893l-.014.001c-.77.033-1.545.028-2.354-.284.79-.125 1.583-.233 2.368-.378V40.953H24.31c.195-.318.32-.679.33-1.106-2.108-1.685-5.202-.178-8.02-1.693 2.901-.116 5.177-.142 7.465-.039 1.557.07 3.121.04 4.684.027a144.5 144.5 0 0 0 4.362-.099c.66-.026 1.335-.083 1.968-.231.227-.054.413-.4.493-.642.04-.122-.163-.393-.325-.445-.61-.196-1.24-.435-1.877-.468-2.795-.143-5.595-.212-8.391-.325-.644-.026-1.285-.125-2.034-.202.123-.394.226-.642.274-.897.163-.862-.068-1.428-.858-1.532-2.244-.294-4.213-1.202-6.325-1.758-1.555-.41-3.322-.263-4.994-.373-.403-.026-.805-.083-1.505-.158.856-.819 1.801-.603 2.575-.8.833-.212 1.594-.62 2.446-.966.057-.558.11-1.073.171-1.687 3.786-.268 7.61.837 11.463-.312l.838-2.307c-.334-.233-.55-.495-.83-.56a28.77 28.77 0 0 0-2.911-.536c-1.976-.244-3.964-.26-5.798-1.182-.87-.437-2.164-.29-3.262-.429-.367-.046-.724-.156-1.354-.298 1.81-.687 1.811-.665 4.669-.63 1.454.018 2.912-.037 4.365-.097 1.542-.063 3.129.29 4.843-.353-.155-.497-.348-.989-.456-1.492-.114-.532-.15-1.076-.208-1.513-1.062-1.012-2.42-1.126-3.715-1.414-.955-.212-1.909-.528-2.745-.955-.354-.18-.406-.762-.688-1.355 1.008-.059 1.754-.153 2.498-.137 11.197.236 22.394.496 33.592.721 2.108.042 4.22-.08 6.33-.078 3.584.005 7.171-.032 10.748.1 5.707.21 11.406.555 17.11.813 1.78.08 3.568.015 5.348.094 5.48.24 10.956.517 16.433.786 1.892.092 3.777.495 5.68.108.414-.083.807-.231 1.657-.482-.795-.239-1.144-.4-1.514-.446-6.984-.875-14.013-1.32-21.069-1.57-4.81-.172-9.613-.501-14.421-.707-8.054-.342-16.112-.633-24.166-.964-4.8-.196-9.599-.423-14.519-.642.275-.19.437-.39.57-.377 2.052.178 4.023-.284 5.888-.798 1.976-.546 3.915-.625 5.926-.562 2.574.081 5.146.155 7.721.215.671.017 1.345-.016 2.016-.05 1.064-.055 2.066-.397 2.544-1.149.322-.507.141-1.231.194-1.962ZM39.045 476.445c.066.053.134.152.198.149.205-.012.41-.062.613-.097l-.258-.256c-.184.069-.369.136-.553.204Zm2.808-.069c.085-.025.184-.039.248-.081.035-.023.007-.099.007-.152l-.255-.038v.271Zm14.33-.473c-2.82-.675-5.11-.292-7.416.201 1.857.03 3.715.071 5.576.078.42.001.85-.123 1.84-.279ZM1.463 447.757c-.058.055-.135.165-.171.159-.145-.025-.28-.086-.418-.133l.29-.102.299.076Zm270.57-424.675c-.201-.008-.406.024-.608.04l.229.294.558-.158c-.06-.062-.116-.173-.179-.176Zm-2.567-.033c-.085.018-.183.022-.249.06-.037.02-.017.103-.022.16l.245.064.026-.284Zm-12.203-1.047c-.41-.044-.84.044-1.822.108 2.689.991 4.959.818 7.255.532-1.81-.217-3.618-.447-5.433-.64ZM157.597.881c2.037-.32 4.239.022 6.363.125 5.25.253 10.497.542 15.746.812 7.932.409 15.87.761 23.795 1.24 5.466.33 10.917.86 16.378 1.254 7.014.505 14.028 1.032 21.054 1.417 5.468.3 10.956.333 16.425.6 9.605.465 19.202 1.016 28.803 1.537 4.02.218 8.041.425 12.056.7 1.097.075 2.201.305 3.249.594.451.125.767.582 1.287 1.006-1.124 1.132-2.167 2.177-3.2 3.227-.334.338-.4.796-.281 1.932-.707.067-1.473.029-2.126.235-.589.185-1.056.636-1.633 1.007-.536-.085-1.084-.15-1.62-.26-3.803-.775-7.634-1.356-11.561-1.516-4.585-.186-9.164-.458-13.744-.723-8.153-.471-16.306-.94-24.456-1.46-6.464-.41-12.923-.868-19.379-1.356-6.014-.455-12.019-1.004-18.033-1.466-5.794-.444-11.589-.918-17.396-1.223-14.524-.764-29.055-1.444-43.585-2.146-4.357-.21-8.719-.377-13.078-.573-.44-.02-.958-.008-1.288-.195-.274-.154-.556-.72-.432-.862.442-.504 1.021-.941 1.621-1.329.396-.256.916-.386 1.416-.583-.92-1.622-2.987-.692-4.108-1.46.029-.597.442-.672.908-.667 5.822.069 11.645.109 17.467.224 3.118.061 6.194.408 9.352-.091Z"/></svg>