<svg xmlns="http://www.w3.org/2000/svg" fill="none" viewBox="0 0 73 97"><path fill="#D0000A" d="M51.973 24.53s-.569-5.808 1.247-9.257c0 0-2.889-.829-2.454-4.851l2.454 1.084s-3.349-4.085 0-10.534l7.627 5.426s-.51-2.873.83-3.64c0 0 3.795 3.47 6.593 5.293a8.693 8.693 0 0 1 2.57 2.571c.941 1.468 1.643 3.558.5 5.914a1.964 1.964 0 0 0-.179 1.137c.063.419.209 1.004.539 1.759.29.662.348 1.41.093 2.083-.314.813-1.108 1.665-3.036 1.84-1.068.092-2.136-.07-3.151-.407-.644-.214-1.405-.5-1.874-.783 0 0 1.468 3.082 2.86 5.003.849 1.166 1.573 2.42 2.084 3.772 1.515 4.027 2.374 10.997-7.748 14.079l.802 7.864c.086.864.62 1.619 1.41 1.979 1.068.48 2.373 1.375 2.066 2.738h-5.745s-4.341-2.873-4.917-7.597V45.28h-3.83s4.213 6.768-4.213 9.257c0 0 2.362 1.278 2.044 3.064H29.706c-6.002 0-8.171-4.08-8.171-4.08-3.192-4.208-.894-12.646-.894-12.646l.766 5.107c.778 7.464 6.257 7.534 6.257 7.534h1.59l3.018-.11c-.4-4.904.313-16.15 13.644-23.092"/><path fill="#fff" d="M39.246 35.26s-7.12 5.494-6.698 17.3c0 0 2.16-12.333 6.698-17.3ZM62.78 21.248s6.853 13.117 6.384 15.716l.597-1.405-1.329-5.176-4.37-7.476-1.282-1.66v.001ZM51.973 24.534l2.246-9.68s-3.052-1.77-3.268-4.155v1.81l.534 1.174.853 1.34.597.446-.279.743-.638 3.628-.023 2.838-.024 1.863v-.006l.002-.001ZM71.659 14.1s.55 0-9.948-10.892c0 0-.48 2.704.395 5.107L52.81 2.71s-1.305 4.417 1.463 9.629l-1.282-1.526a4.49 4.49 0 0 1-1.004-2.188l-.157-.964a8.296 8.296 0 0 1 .058-3l.534-2.625.766-1.468 7.319 5.34 1.021-3.384 4.77 4.41s6.315 3.842 5.357 7.163l.006.005h-.001Z" opacity=".4"/><path fill="#fff" d="M65.689 17.214a1.454 1.454 0 0 0 1.433-1.475 1.454 1.454 0 0 0-1.456-1.45 1.454 1.454 0 0 0-1.433 1.474 1.454 1.454 0 0 0 1.456 1.451Z"/><path fill="#fff" d="m66.877 14.982-.098-.18a1.442 1.442 0 0 0-1.108-.515 1.456 1.456 0 0 0-1.433 1.474c0 .098.011.19.028.284l.058.041s.348-2.292 2.548-1.108l.006.007-.001-.003Z" opacity=".6"/><path fill="#000" d="M65.68 17.39a1.621 1.621 0 0 1-1.618-1.624c0-.435.162-.853.464-1.166a1.6 1.6 0 0 1 1.143-.493h.012c.43 0 .829.168 1.138.47.306.306.48.72.48 1.154 0 .435-.162.853-.464 1.166a1.6 1.6 0 0 1-1.143.493h-.011Zm0-2.926h-.01c-.338 0-.656.14-.888.383a1.299 1.299 0 0 0 .011 1.816c.24.238.55.372.888.372h.011c.337 0 .656-.14.888-.383a1.298 1.298 0 0 0-.012-1.817 1.25 1.25 0 0 0-.887-.371Z"/><path fill="#000" d="M51.562 22.25c.011-1.94.225-4.708 1.212-6.807-.813-.395-2.699-1.684-2.334-5.056l.047-.441 1.886.835c-.825-1.59-1.962-5.118.55-9.958l.175-.33 7.336 5.223c-.063-.976 0-2.623 1.073-3.233l.204-.116.174.162c.04.035 3.814 3.47 6.547 5.259a9.058 9.058 0 0 1 2.664 2.668c.917 1.434 1.753 3.68.516 6.234a1.635 1.635 0 0 0-.15.945c.074.5.248 1.068.515 1.677.342.778.376 1.607.098 2.327-.319.83-1.15 1.858-3.314 2.049-1.062.093-2.165-.047-3.284-.418-.4-.133-.755-.26-1.062-.388.534 1.045 1.491 2.843 2.408 4.108.946 1.306 1.643 2.566 2.125 3.849.853 2.28 1.561 5.64.047 8.7-1.266 2.57-3.877 4.498-7.753 5.722l.778 7.597a2.114 2.114 0 0 0 1.224 1.712c1.73.782 2.524 1.892 2.246 3.11l-.058.255h-6.106l-.081-.053c-.18-.121-4.475-3.012-5.061-7.829v-4.44h-2.96c.47.957 1.306 3.133.494 5.27-.64 1.676-2.154 2.942-4.504 3.766.737.546 1.863 1.626 1.614 3.024l-.046.267H29.705c-6.129 0-8.368-4.08-8.461-4.255-3.221-4.242-1.015-12.536-.922-12.884l.406-1.491.998 6.64c.744 7.085 5.728 7.255 5.937 7.255h1.59l2.67-.098c-.319-4.835.527-15.942 13.493-22.879m.76-.114.244.307-.349.179c-13.278 6.907-13.842 18.229-13.47 22.774l.03.336-3.36.128h-1.608c-.063 0-5.78-.162-6.582-7.822l-.499-3.32c-.47 2.658-.987 7.737 1.207 10.633.117.202 2.195 3.953 7.91 3.953h18.52c0-1.399-1.88-2.444-1.904-2.455l-.69-.377.755-.22c2.524-.743 4.115-1.951 4.735-3.581.946-2.479-.69-5.172-.708-5.196l-.307-.499h4.742v5.05c.505 4.138 4.116 6.86 4.696 7.271h5.363c.053-.999-.992-1.695-1.916-2.118a2.786 2.786 0 0 1-1.602-2.241l-.83-8.124.256-.075c3.841-1.166 6.4-3.006 7.615-5.467 1.405-2.855.736-6.025-.076-8.183-.465-1.23-1.132-2.438-2.037-3.697-1.394-1.927-2.832-4.928-2.89-5.056l-.464-.975.922.558c.365.22.992.48 1.812.754 1.033.342 2.055.476 3.023.388 1.468-.127 2.397-.678 2.762-1.63.214-.563.186-1.213-.086-1.835-.29-.667-.481-1.282-.563-1.846a2.295 2.295 0 0 1 .21-1.324c.887-1.827.724-3.713-.482-5.594a8.383 8.383 0 0 0-2.471-2.473c-2.42-1.58-5.618-4.41-6.436-5.149-.731.678-.609 2.478-.488 3.163l.14.783-7.962-5.67c-2.924 5.972 0 9.687.133 9.843l.852 1.05-3.272-1.444c-.163 3.302 2.153 4.027 2.257 4.057l.383.11-.185.352c-1.747 3.32-1.22 9.019-1.213 9.072l-.643.098"/><path fill="#000" d="m52.775 15.44.3.142.14-.295-.294-.143-.144.299-.002-.002Zm-2.287-5.494.134-.304-.416-.184-.048.453.33.035Zm1.887.836-.134.303.862.382-.434-.838-.294.153ZM53.1.49l.193-.27L52.984 0l-.176.335.294.154-.002.002Zm7.335 5.223-.192.27.569.405-.045-.696-.33.021h-.002Zm1.277-3.349.226-.242-.18-.166-.212.121.165.287h.001Zm.174.163-.225.242.005.005.005.005.215-.252Zm9.576 15.107-.328.048.326-.048h.002Zm-2.699 6.053.028.33-.03-.33h.002Zm-4.346-.806.128-.305-.83-.345.409.8.295-.15h-.001Zm-3.174 22.38-.1-.316-.257.081.028.269.33-.033-.001-.002Zm4.19 12.673v.332h.263l.058-.257-.323-.073.002-.002Zm-6.106 0-.18.279.082.053h.098v-.332Zm-.081-.051-.186.273h.003l.003.006.18-.28Zm-5.061-7.83h-.332v.04l.332-.04Zm0-4.44h.332v-.331h-.332v.331Zm-2.96 0v-.331h-.53l.234.477.297-.146Zm-4.01 9.037-.11-.312-.59.208.503.371.197-.265v-.002Zm1.568 3.29v.333h.278l.048-.276-.326-.056Zm-27.54-4.254.292-.156-.013-.023-.017-.021-.264.2h.002Zm-.516-14.376.327-.05-.647-.038.32.087v.001Zm.999 6.64.33-.035v-.006l-.002-.007-.327.05-.001-.002Zm7.527 7.255v.332h.012l-.012-.332Zm2.669-.1.011.332.34-.013-.023-.34-.33.022h.002ZM46.42 30.422l.152.293.357-.184-.25-.315-.261.206h.002ZM32.63 53.71l.012.331.347-.013-.03-.347-.33.029Zm-3.361.127v.332h.013l-.013-.332Zm-8.19-7.822.33-.035v-.007l-.001-.006-.327.05-.002-.002Zm-.499-3.32.327-.05-.654-.009.327.058Zm1.208 10.631.287-.164-.01-.018-.014-.017-.263.201v-.002Zm26.43 3.953v.332h.331v-.332h-.331Zm-1.903-2.455-.16.29.006.004.005.003.147-.297h.002Zm-.692-.378-.093-.319-.767.226.703.383.16-.29h-.003Zm4.782-8.995-.282.174.009.013.008.012.265-.2Zm-.306-.5v-.331h-.594l.312.504.282-.174v.002Zm4.74 0h.332v-.331h-.332v.331Zm0 5.05h-.332v.04l.332-.04Zm4.696 7.271-.193.27.087.062h.106v-.332Zm5.362 0v.332h.314l.017-.313-.33-.017v-.002ZM60.551 44.79l-.095-.317-.263.078.028.274.33-.033v-.002Zm.255-.075.095.317-.096-.317h.002Zm2.613-22.402.302-.138v-.003l-.002-.003-.298.142-.002.002Zm-.464-.975.17-.284-.945-.57.474.996.299-.142h.002Zm5.757 1.7-.028-.33.03.33h-.002Zm2.762-1.63.308.119-.31-.12h.002ZM61.642 3.19l.223-.246-.226-.202-.222.206.225.242Zm-.348 3.946-.192.27.66.47-.141-.798-.327.058Zm-7.962-5.67.193-.27-.319-.226-.172.35.297.146h.001Zm.133 9.843.257-.209v-.003l-.005-.004-.252.214v.002Zm.854 1.05-.134.303.391-.512-.257.209Zm-3.274-1.445.134-.303-.44-.194-.024.48.33.017Zm2.258 4.058.09-.319-.087.319h-.003Zm.383.109.293.154.19-.36-.39-.113-.092.319h-.001Zm-1.399 9.426.05.327.314-.048-.035-.315-.329.036Zm-.394-2.256c.011-1.929.227-4.636 1.18-6.67l-.6-.281c-1.018 2.17-1.232 5-1.244 6.947l.662.003.002.002Zm1.026-7.107a3.778 3.778 0 0 1-1.477-1.297c-.482-.723-.846-1.81-.672-3.425l-.659-.072c-.19 1.757.204 3 .778 3.863a4.43 4.43 0 0 0 1.74 1.526l.29-.595Zm-2.148-4.722.047-.442-.659-.07-.046.442.658.07Zm-.418-.175 1.886.837.269-.606-1.886-.836-.269.606Zm2.316.382c-.785-1.514-1.903-4.928.55-9.654L52.633.67c-2.572 4.955-1.414 8.599-.55 10.264l.589-.305h-.002Zm.55-9.652.175-.33-.586-.309-.174.33.586.309Zm-.311-.216 7.336 5.224.385-.54L53.293.223l-.385.54Zm7.859 4.932c-.032-.473-.03-1.092.102-1.657.133-.57.384-1.027.805-1.266l-.327-.576c-.652.37-.97 1.04-1.123 1.692-.152.656-.15 1.349-.117 1.85l.661-.043h-.001Zm.907-2.923.202-.116-.328-.576-.204.116.328.576h.002Zm-.187-.163.174.163.453-.484-.175-.163-.45.484h-.002Zm.184.173.044.04.131.118.477.424c.403.357.967.846 1.614 1.392 1.292 1.088 2.93 2.405 4.314 3.31l.363-.553c-2.71-1.772-6.456-5.184-6.512-5.232l-.431.503V2.78Zm6.581 5.283a8.715 8.715 0 0 1 2.567 2.571l.558-.357a9.368 9.368 0 0 0-2.761-2.768l-.364.554Zm2.567 2.571c.883 1.382 1.663 3.502.497 5.91l.597.288c1.306-2.698.415-5.07-.536-6.555l-.557.357h-.001Zm.495 5.912a1.96 1.96 0 0 0-.18 1.137l.655-.096a1.3 1.3 0 0 1 .12-.755l-.596-.286h.001Zm-.179 1.14c.081.533.266 1.13.541 1.759l.607-.265c-.259-.59-.423-1.13-.493-1.594l-.655.1Zm.541 1.76c.312.707.337 1.445.093 2.074l.617.239c.313-.81.27-1.732-.105-2.581l-.607.267.002.002Zm.093 2.076a2.473 2.473 0 0 1-.853 1.116c-.46.342-1.147.63-2.18.721l.057.66c1.131-.099 1.94-.42 2.518-.849a3.13 3.13 0 0 0 1.077-1.411l-.62-.237Zm-3.034 1.836c-1.013.088-2.07-.043-3.151-.403l-.21.629c1.16.384 2.308.53 3.42.432l-.059-.66v.002Zm-3.151-.402a16.384 16.384 0 0 1-1.04-.38l-.254.613c.318.132.68.262 1.085.396l.209-.629Zm-1.462.077c.534 1.045 1.501 2.864 2.435 4.153l.536-.388c-.9-1.242-1.848-3.02-2.382-4.065l-.59.301.001-.001Zm2.435 4.151c.932 1.286 1.612 2.52 2.082 3.77l.62-.232c-.494-1.315-1.206-2.6-2.166-3.926l-.536.389Zm2.082 3.77c.843 2.253 1.513 5.503.06 8.437l.593.294c1.576-3.184.832-6.654-.033-8.963l-.62.233Zm.06 8.439c-1.211 2.461-3.73 4.344-7.556 5.553l.2.632c3.925-1.24 6.63-3.211 7.951-5.892l-.594-.292-.001-.001Zm-7.786 5.901.778 7.597.658-.068-.778-7.597-.658.068Zm.778 7.597c.087.866.63 1.624 1.418 1.98l.273-.603a1.783 1.783 0 0 1-1.031-1.443l-.659.066h-.001Zm1.418 1.98c.832.377 1.408.82 1.743 1.284.328.457.433.94.315 1.452l.645.147c.163-.708.009-1.386-.424-1.985-.425-.59-1.112-1.095-2.009-1.5l-.273.604.003-.001Zm2.058 2.736-.058.255.645.148.058-.256-.645-.147Zm.266-.002h-6.106v.662h6.106v-.662Zm-5.927.052-.081-.053-.358.557.08.051.36-.557v.002Zm-.075-.047c-.08-.053-1.17-.788-2.313-2.098-1.145-1.31-2.321-3.178-2.605-5.497l-.658.08c.303 2.498 1.567 4.483 2.762 5.853 1.196 1.37 2.34 2.142 2.441 2.211l.372-.549h.001Zm-4.914-7.555v-4.44h-.662v4.44h.662Zm-.332-4.772h-2.96v.661h2.96v-.661Zm-3.258.477c.461.94 1.243 3.006.481 5.006l.619.236c.864-2.27-.026-4.558-.506-5.534l-.595.292h.001Zm.481 5.006c-.592 1.555-2.007 2.767-4.304 3.572l.219.625c2.405-.843 4.019-2.162 4.704-3.961l-.619-.236Zm-4.39 4.15c.353.263.784.642 1.098 1.11.31.464.49.999.386 1.59l.652.115c.144-.808-.113-1.513-.488-2.073-.371-.558-.87-.99-1.255-1.274l-.395.532h.002Zm1.484 2.702-.046.267.653.113.047-.267-.654-.113Zm.28-.008H29.707v.662h19.077v-.662Zm-19.076 0c-5.95 0-8.101-3.953-8.17-4.079l-.583.312c.118.222 2.446 4.429 8.755 4.429v-.662h-.002Zm-8.2-4.123c-1.534-2.02-1.796-5.05-1.636-7.682.157-2.614.726-4.75.771-4.916l-.64-.171c-.048.182-.63 2.367-.792 5.047-.16 2.663.085 5.902 1.772 8.123l.527-.4-.001-.001Zm-.865-12.597.406-1.49-.638-.175-.407 1.491.639.174Zm-.242-1.529.998 6.64.655-.098-.998-6.64-.655.098Zm.997 6.625c.38 3.63 1.857 5.535 3.312 6.524 1.44.978 2.812 1.026 2.954 1.026v-.662c-.064 0-1.29-.034-2.582-.912-1.276-.867-2.664-2.587-3.026-6.044l-.658.07v-.002Zm6.266 7.55h1.591v-.662h-1.59v.662Zm1.603 0 2.67-.098-.025-.661-2.67.097.025.662Zm2.989-.45c-.316-4.766.514-15.715 13.319-22.564l-.312-.584C32.136 36.959 31.27 48.227 31.593 53.13l.662-.043-.001-.002ZM45.916 30.32l.244.306.52-.411-.245-.307-.519.412Zm.352-.193-.348.18.303.588.349-.18-.304-.588Zm-.348.18C32.474 37.298 31.895 48.788 32.272 53.4l.66-.054c-.367-4.477.182-15.634 13.293-22.453l-.305-.587ZM32.272 53.401l.028.337.66-.057-.03-.336-.66.056h.002Zm.346-.022-3.36.128.025.662 3.36-.128-.025-.662Zm-3.348.127h-1.608v.661h1.608v-.661Zm-1.608 0s-1.368-.034-2.833-.986c-1.448-.94-3.027-2.803-3.418-6.542l-.659.07c.41 3.923 2.09 5.971 3.716 7.028 1.609 1.045 3.123 1.093 3.194 1.093v-.664Zm-6.253-7.541-.5-3.319-.654.098.499 3.319.655-.098Zm-1.153-3.329c-.237 1.342-.488 3.303-.4 5.3.088 1.99.513 4.063 1.67 5.591l.526-.4c-1.036-1.368-1.45-3.282-1.535-5.22-.085-1.93.157-3.838.391-5.155l-.652-.116Zm1.246 10.855c.138.242 2.304 4.118 8.197 4.118v-.662c-5.538 0-7.529-3.62-7.623-3.785l-.576.329h.002Zm8.197 4.12h18.52v-.662h-18.52v.662Zm18.851-.332c0-.844-.56-1.538-1.05-1.99a5.67 5.67 0 0 0-1.036-.76l-.297.592c-.012-.007.436.24.884.654.456.423.836.95.836 1.504h.663Zm-2.076-2.745-.69-.377-.317.58.69.377.317-.582v.002Zm-.757.23.755-.22-.186-.635-.755.22.186.635Zm.755-.22c2.573-.757 4.278-2.012 4.951-3.78l-.619-.236c-.568 1.493-2.043 2.652-4.52 3.38l.188.636Zm4.953-3.78c.51-1.336.318-2.71.015-3.73a8.766 8.766 0 0 0-.483-1.253 6.072 6.072 0 0 0-.186-.362c-.023-.043-.043-.076-.058-.1a1.076 1.076 0 0 0-.041-.067l-.531.398c-.013-.018-.018-.027 0 .003a6.692 6.692 0 0 1 .216.413c.136.282.305.682.446 1.155.284.952.438 2.163 0 3.306l.619.235.003.002Zm-.737-5.487-.306-.5-.564.349.306.499.564-.348Zm-.588.006h4.742v-.661H50.1v.661Zm4.41-.331v5.049h.662v-5.05h-.662Zm.002 5.09c.262 2.155 1.332 3.928 2.393 5.205a13.63 13.63 0 0 0 2.438 2.297l.384-.54a12.868 12.868 0 0 1-2.313-2.181c-1.015-1.221-2.003-2.878-2.245-4.862l-.657.08v.001Zm5.024 7.562h5.362v-.662h-5.362v.662Zm5.693-.313c.033-.632-.286-1.143-.695-1.533-.408-.388-.938-.687-1.414-.904l-.277.602c.447.206.901.468 1.233.783.33.313.509.65.49 1.017l.661.035h.002Zm-2.107-2.437a2.451 2.451 0 0 1-1.41-1.974l-.658.07a3.117 3.117 0 0 0 1.793 2.506l.275-.602Zm-1.411-1.974-.83-8.124-.658.068.829 8.124.659-.068Zm-1.065-7.773.255-.076-.187-.635-.256.076.188.636Zm.257-.076c3.89-1.18 6.547-3.063 7.816-5.638l-.594-.293c-1.156 2.347-3.618 4.145-7.413 5.296l.192.634-.001.001Zm7.816-5.638c1.466-2.98.76-6.26-.063-8.446l-.62.234c.802 2.131 1.43 5.19.087 7.92l.594.292h.002Zm-.063-8.446c-.477-1.262-1.16-2.495-2.079-3.773l-.537.386c.892 1.24 1.544 2.422 1.995 3.621l.62-.234Zm-2.079-3.773c-1.373-1.9-2.801-4.875-2.858-4.998l-.604.274c.06.132 1.51 3.156 2.923 5.112l.538-.388h.001Zm-2.86-5.005-.464-.975-.599.285.465.976.599-.286Zm-.933-.549.922.558.342-.568-.923-.557-.341.567Zm.922.558c.398.24 1.053.51 1.878.784l.209-.629c-.815-.27-1.412-.522-1.745-.723l-.342.567Zm1.878.786c1.07.355 2.138.496 3.158.404l-.06-.66c-.919.083-1.894-.043-2.89-.373l-.208.629Zm3.156.403c1.531-.133 2.613-.723 3.044-1.843l-.619-.237c-.302.784-1.076 1.297-2.481 1.42l.058.66h-.002Zm3.044-1.843c.249-.653.21-1.395-.093-2.085l-.607.267c.242.55.26 1.111.081 1.582l.619.236Zm-.093-2.083c-.282-.65-.463-1.236-.54-1.762l-.654.095c.086.6.288 1.245.587 1.93l.607-.263Zm-.54-1.76a1.945 1.945 0 0 1 .18-1.131l-.596-.29a2.61 2.61 0 0 0-.238 1.514l.655-.093Zm.18-1.133c.944-1.944.761-3.953-.5-5.918l-.558.358c1.153 1.795 1.294 3.558.463 5.271l.595.29v-.001Zm-.5-5.917a8.693 8.693 0 0 0-2.572-2.57l-.362.555a8.014 8.014 0 0 1 2.374 2.374l.557-.357.002-.002ZM68.26 8.06c-2.395-1.563-5.575-4.378-6.396-5.117l-.443.492c.816.735 4.032 3.585 6.477 5.179l.362-.556v.002Zm-6.844-5.112c-.465.43-.622 1.167-.669 1.798a7.233 7.233 0 0 0 .08 1.665l.652-.116a6.532 6.532 0 0 1-.071-1.501c.044-.61.192-1.115.46-1.36l-.452-.486ZM60.83 6.41l.14.783.65-.116-.138-.783-.652.116Zm.657.456-7.964-5.67-.385.54 7.964 5.67.385-.54ZM53.034 1.32c-3.004 6.133-.005 9.989.179 10.203l.504-.43c-.083-.097-2.934-3.67-.088-9.482l-.595-.292v.001Zm.174 10.198.853 1.05.514-.418-.853-1.05-.514.418Zm1.244.54-3.273-1.446-.267.606 3.273 1.444.267-.605Zm-3.737-1.16c-.086 1.74.484 2.836 1.12 3.501.625.655 1.29.866 1.38.89l.177-.638s-.008-.001-.026-.008c-.019-.007-.044-.015-.073-.027a2.328 2.328 0 0 1-.25-.117 2.95 2.95 0 0 1-.727-.558c-.508-.53-1.014-1.448-.938-3.01l-.661-.033h-.002Zm2.496 4.392.383.11.183-.638-.383-.109-.183.637Zm.181-.362-.186.354.587.308.186-.355-.587-.308v.001Zm-.184.354c-.909 1.726-1.216 4.042-1.302 5.9a26.231 26.231 0 0 0 .053 3.362l.658-.073s-.008-.088-.02-.256a26.992 26.992 0 0 1-.028-3.002c.085-1.836.389-4.029 1.226-5.621l-.585-.309-.002-.001Zm-.97 8.897-.644.098.1.655.643-.098-.1-.655Z"/><path fill="#FFCA28" d="m18.916 20.256 4.01 2.63.244 1.305 1.224.08.818 1.452.964 1.034-.511.84.79.435.7-.302 1.12 1.34-.499 1.138.407.93 2.06 2.124 4.63-1.266 1.07.992 2.06-.905 1.578.592.267 1.294.946.053.847-.523 1.951 1.027 1.096.197.244 1.34h1.352l.894-.696 2.71.697 4.127-4.353.377-5.084-3.396-5.432-3.732-3.157-3.516-.84-19.72 2.385-5.114.673h.002Z"/><path fill="#fff" d="m19.605 20.379 22.024.87s14.045.767 12.089 10.61c0 0 3.737-5.444-4.278-12.414 0 0-2.206-4.057-14.155-1.352l-15.896 2.009" opacity=".6"/><path stroke="#000" stroke-miterlimit="10" stroke-width="1.242" d="M28.727 34.028c.713-4.846-.659-7.527-3.961-10.046a24.786 24.786 0 0 0-2.2-1.51 19.888 19.888 0 0 0-2.275-1.207l-2.502-1.132 24.579-2.866c2.24-.295 4.538.267 6.308 1.672 2.048 1.626 3.807 4.016 4.968 5.99 3.627 6.187-3.76 11.136-3.76 11.136-5.688-4.928-8.724-5.502-12.78-4.886-2.177.33-4.279 1.026-6.246 2.002l-1.712.847h-.42Z"/><path fill="#87C44E" d="M37.394 22.485a.638.638 0 0 0-.632-.169 1.37 1.37 0 0 1-.871-.035 1.366 1.366 0 0 1-.708-.499.625.625 0 0 0-.604-.244.63.63 0 0 0-.476.883c.204.43.592.917 1.358 1.15.743.278 1.359.127 1.777-.094a.629.629 0 0 0 .156-.987v-.006.001Z"/><path fill="#fff" d="M36.761 22.316c-.22.063-.527.093-.87-.035a1.366 1.366 0 0 1-.709-.499.633.633 0 0 0-1.022.017l.07.283s.226-.469.528-.169c.301.302.301.755 1.212.91.91.152 1.364-.301 1.364-.301l-.017-.098a.628.628 0 0 0-.557-.104v-.007l.001.003Z" opacity=".6"/><path fill="#000" d="M36.261 24.023c-.273 0-.573-.046-.894-.17a2.43 2.43 0 0 1-1.537-1.305.935.935 0 0 1 .017-.824.937.937 0 0 1 .678-.488.948.948 0 0 1 .894.36 1.094 1.094 0 0 0 .576.402c.22.081.446.088.678.023a.934.934 0 0 1 1.178 1.05.898.898 0 0 1-.481.667 2.409 2.409 0 0 1-1.115.278l.006.007Zm-1.584-2.194h-.05a.344.344 0 0 0-.245.174.297.297 0 0 0-.006.278c.232.493.627.825 1.172.987.005 0 .012 0 .018.005.535.198 1.045.174 1.527-.074a.314.314 0 0 0 .162-.226.338.338 0 0 0-.086-.284c-.081-.086-.21-.12-.33-.086a1.703 1.703 0 0 1-1.045-.035 1.657 1.657 0 0 1-.853-.603.327.327 0 0 0-.267-.133h.005l-.002-.003Z"/><path fill="#FFCA28" d="M24.574 21.178c-1.521.214-1.875.365-1.016 1.533a.345.345 0 0 1 0 .377c-.225.313-.603.98-.15 1.486.4.452.875.248 1.224.08a.215.215 0 0 1 .306.163c.035.198.087.47.175.714.244.69.864 1.091 1.242 1.282.128.063.151.226.052.33-.175.18-.342.458-.273.801.11.574.767.523 1.255.18.306.457.684.945 1.021 1.223a.306.306 0 0 1 .052.412c-.279.383-.709 1.126-.244 1.56.488.458 1.16 1.004 2.055-.132.342-.395.65-.964.906-1.614a.854.854 0 0 0 .034-.076c.047-.087.314-.534.447-.795"/><path fill="#000" d="M29.071 32.17c-.51.04-.91-.29-1.247-.603-.04-.042-.082-.082-.116-.128-.307-.418-.198-1.033.325-1.753.016-.028.011-.063-.012-.081-.272-.226-.585-.593-.934-1.085-.341.179-.696.22-.968.116-.238-.093-.395-.295-.447-.57-.086-.452.14-.794.307-.98-.47-.243-1.068-.684-1.317-1.393a4.883 4.883 0 0 1-.179-.72c-.325.156-.957.442-1.48-.15-.406-.458-.36-1.109.133-1.789a.078.078 0 0 0 0-.098c-.627-.852-1.172.256-.569-.464.087-.104.122-.383.226-.295.105.086-.18.013-.267.118-.488.58-.022-.737 1.005.364l.005.007a.57.57 0 0 1-.012.65c-.202.284-.499.813-.162 1.185.249.283.522.225.94.023a.46.46 0 0 1 .412 0c.128.07.22.19.244.33.028.18.08.441.162.667.203.58.725.945 1.126 1.15a.43.43 0 0 1 .238.324.461.461 0 0 1-.122.389c-.12.127-.26.33-.208.585.028.15.104.197.155.214.175.07.47-.007.72-.186a.236.236 0 0 1 .335.065c.372.55.709.957.976 1.173.22.179.26.504.093.736-.198.267-.61.922-.273 1.242.273.256 1.05.8 1.369.777"/><path stroke="#000" stroke-miterlimit="10" stroke-width=".377" d="M29.071 32.17c-.51.04-.91-.29-1.247-.603-.04-.042-.082-.082-.116-.128-.307-.418-.198-1.033.325-1.753.016-.028.011-.063-.012-.081-.272-.226-.585-.593-.934-1.085-.341.179-.696.22-.968.116-.238-.093-.395-.295-.447-.57-.086-.452.14-.794.307-.98-.47-.243-1.068-.684-1.317-1.393a4.883 4.883 0 0 1-.179-.72c-.325.156-.957.442-1.48-.15-.406-.458-.36-1.109.133-1.789a.078.078 0 0 0 0-.098c-.627-.852-1.172.256-.569-.464.087-.104.122-.383.226-.295.105.086-.18.013-.267.118-.488.58-.022-.737 1.005.364l.005.007a.57.57 0 0 1-.012.65c-.202.284-.499.813-.162 1.185.249.283.522.225.94.023a.46.46 0 0 1 .412 0c.128.07.22.19.244.33.028.18.08.441.162.667.203.58.725.945 1.126 1.15a.43.43 0 0 1 .238.324.461.461 0 0 1-.122.389c-.12.127-.26.33-.208.585.028.15.104.197.155.214.175.07.47-.007.72-.186a.236.236 0 0 1 .335.065c.372.55.709.957.976 1.173.22.179.26.504.093.736-.198.267-.61.922-.273 1.242.273.256 1.05.8 1.369.777"/><path fill="#FFCA28" d="M50.062 32.909c.26 1.828-1.061 3.075-2.698 2.466a.393.393 0 0 0-.435.133c-.284.365-.929 1.022-1.665.673-.656-.313-.58-.929-.505-1.386a.26.26 0 0 0-.29-.302 5.236 5.236 0 0 1-.882.04c-.883-.054-1.55-.64-1.898-1.01a.247.247 0 0 0-.395.046c-.15.26-.417.545-.829.58-.697.063-.86-.713-.627-1.386-.632-.203-1.324-.47-1.758-.767a.365.365 0 0 0-.493.077c-.348.446-1.061 1.196-1.718.8-.69-.41-1.55-1.003-.534-2.414.341-.523.894-1.073 1.56-1.584.024-.023.047-.04.075-.063.081-.088.511-.54.767-.783"/><path fill="#000" d="M34.615 31.887c.128.604.644.957 1.115 1.236.058.035.12.063.185.088.586.22 1.26-.117 1.916-.964a.08.08 0 0 1 .098-.017c.348.238.876.481 1.568.72-.093.453-.024.883.19 1.161.186.244.476.36.806.325.551-.051.876-.43 1.027-.678.441.464 1.15 1.003 2.055 1.056.319.019.655-.004.894-.034-.076.43-.185 1.254.667 1.66.662.319 1.398.04 2.02-.755.024-.035.07-.046.11-.035 1.196.435 1.294.644 1.92-.295.087-.132.467-.295.332-.388-.132-.086-.605-.058-.698.075-.504.755-.446.4-1.363.063h-.012a.676.676 0 0 0-.748.232c-.26.33-.771.848-1.312.586-.411-.198-.435-.528-.342-1.08a.557.557 0 0 0-.608-.646 4.591 4.591 0 0 1-.83.035c-.743-.04-1.335-.522-1.7-.917a.535.535 0 0 0-.453-.17.542.542 0 0 0-.406.273c-.105.186-.295.411-.604.434-.18.019-.26-.05-.302-.104-.14-.174-.15-.546-.023-.894a.303.303 0 0 0-.012-.226.284.284 0 0 0-.169-.144c-.76-.244-1.34-.5-1.684-.731a.655.655 0 0 0-.882.139c-.244.313-.864 1.015-1.34.731-.987-.381-.91-1.303-.99-1.681"/><path stroke="#000" stroke-miterlimit="10" stroke-width=".377" d="M34.615 31.887c.128.604.644.957 1.115 1.236.058.035.12.063.185.088.586.22 1.26-.117 1.916-.964a.08.08 0 0 1 .098-.017c.348.238.876.481 1.568.72-.093.453-.024.883.19 1.161.186.244.476.36.806.325.551-.051.876-.43 1.027-.678.441.464 1.15 1.003 2.055 1.056.319.019.655-.004.894-.034-.076.43-.185 1.254.667 1.66.662.319 1.398.04 2.02-.755.024-.035.07-.046.11-.035 1.196.435 1.294.644 1.92-.295.087-.132.467-.295.332-.388-.132-.086-.605-.058-.698.075-.504.755-.446.4-1.363.063h-.012a.676.676 0 0 0-.748.232c-.26.33-.771.848-1.312.586-.411-.198-.435-.528-.342-1.08a.557.557 0 0 0-.608-.646 4.591 4.591 0 0 1-.83.035c-.743-.04-1.335-.522-1.7-.917a.535.535 0 0 0-.453-.17.542.542 0 0 0-.406.273c-.105.186-.295.411-.604.434-.18.019-.26-.05-.302-.104-.14-.174-.15-.546-.023-.894a.303.303 0 0 0-.012-.226.284.284 0 0 0-.169-.144c-.76-.244-1.34-.5-1.684-.731a.655.655 0 0 0-.882.139c-.244.313-.864 1.015-1.34.731-.987-.381-.91-1.303-.99-1.681"/><path fill="#000" stroke="#000" stroke-width=".143" d="M28.972 33.018 42.33 21.26 29.592 33.692l-.62-.674Z"/><path fill="#FFD9AB" d="M32.044 26.669c-.116.592.325.685.9.708.22.012.37.22.306.43-.058.209-.14.464-.226.678-.19.47.5.476.5.476l.11.012s.678.12.573-.372c-.047-.232-.075-.5-.098-.713a.339.339 0 0 1 .388-.365c.62.093 1.178.116 1.12-.516-.047-.516-.69-1.27-1.677-1.363-.987-.093-1.782.418-1.898 1.033v-.005l.002-.003Z"/><path fill="#FEFEFD" d="M32.374 27.296a.759.759 0 0 1 0-.325c.123-.61.91-1.12 1.898-1.027.4.035.748.186 1.015.376a2.03 2.03 0 0 0-1.352-.685c-.987-.093-1.781.418-1.898 1.027-.074.372.075.546.337.632v.002Z" opacity=".55"/><path fill="#000" d="M34.15 29.1a.955.955 0 0 1-.545.052l-.093-.012c-.093 0-.47-.023-.632-.267-.058-.088-.11-.244-.024-.458.07-.174.145-.4.221-.662a.177.177 0 0 0-.023-.132.158.158 0 0 0-.116-.063c-.36-.019-.76-.058-.964-.319-.123-.15-.158-.36-.105-.609.151-.754 1.069-1.277 2.102-1.177 1.12.104 1.793.957 1.846 1.532.023.256-.035.447-.174.581-.26.244-.713.202-1.154.133a.153.153 0 0 0-.128.041.149.149 0 0 0-.047.128c.024.267.059.51.093.697.047.232-.034.371-.11.446a.45.45 0 0 1-.128.093h-.019V29.1Zm-1.927-2.397c-.04.214.018.284.035.314.104.133.406.17.69.18a.522.522 0 0 1 .48.66c-.076.271-.157.51-.231.696-.019.035-.029.088-.012.116.04.063.225.104.337.104h.018l.11.012h.017c.11.018.296.018.354-.04.023-.023.018-.076.011-.116a6.792 6.792 0 0 1-.097-.736.537.537 0 0 1 .162-.43.522.522 0 0 1 .435-.14c.225.036.696.105.847-.034.053-.052.077-.144.063-.279-.04-.446-.632-1.114-1.51-1.196-.928-.086-1.606.389-1.7.883l-.01.006Z"/><path fill="#D0000A" d="M49.635 29.658c1.3-.656 2.715-.198 3.156 1.01.447 1.212-.248 2.722-1.549 3.377-1.3.655-2.715.197-3.156-1.01-.447-1.213.248-2.722 1.549-3.377Z"/><path fill="#fff" d="M49.946 34.242s-2.803-1.15-.574-4.161c0 0-1.456.875-1.48 2.264-.023 1.386 2.055 1.897 2.055 1.897h-.001Z" opacity=".6"/><path fill="#707070" d="M49.373 30.082s2.63-.998 2.873 1.045c.244 2.044-1.91 2.96-1.91 2.96l-.022.243a2.85 2.85 0 0 0 .928-.278c1.3-.656 1.998-2.165 1.55-3.378-.279-.766-.946-1.224-1.73-1.3l-1.695.708h.006Z" opacity=".29"/><path fill="#000" d="M53.232 31.12a3.072 3.072 0 0 1-.272 1.631 3.445 3.445 0 0 1-1.584 1.649c-.697.348-1.445.423-2.113.209a2.281 2.281 0 0 1-1.468-1.422c-.256-.69-.21-1.486.133-2.222.325-.714.887-1.3 1.584-1.65.696-.347 1.444-.422 2.113-.208.69.22 1.212.725 1.468 1.421.07.191.116.389.144.598l-.007-.007.002.002Zm-4.951 1.37a1.615 1.615 0 0 0 1.143 1.392c.527.17 1.126.105 1.688-.174a2.754 2.754 0 0 0 1.27-1.312c.245-.534.285-1.091.11-1.572a1.615 1.615 0 0 0-1.05-.992c-.527-.17-1.126-.105-1.688.174a2.754 2.754 0 0 0-1.27 1.312 2.18 2.18 0 0 0-.203 1.173Z"/><path fill="#D0000A" d="M43.632 28.468c.374-.857-.218-1.944-1.322-2.426-1.105-.483-2.305-.178-2.678.68-.374.857.218 1.944 1.322 2.426 1.105.483 2.304.178 2.678-.68Z"/><path fill="#fff" d="M40.162 28.515s-1.173-2.246 1.677-2.462c0 0-1.33-.418-2.02.279-.69.69.347 2.183.347 2.183h-.004Z" opacity=".6"/><path fill="#707070" d="M41.84 26.055s2.113 1.05 1.27 2.234c-.84 1.184-2.628.377-2.628.377l-.133.11c.209.163.446.303.708.407 1.126.435 2.292.075 2.606-.8.197-.558.012-1.185-.435-1.684l-1.393-.644h.007-.002Z" opacity=".29"/><path fill="#000" d="M43.72 28.87c-.221.307-.551.539-.964.666-.55.168-1.184.133-1.788-.097-.604-.233-1.103-.639-1.41-1.143-.319-.523-.4-1.092-.214-1.596.179-.504.597-.882 1.166-1.056.55-.17 1.184-.133 1.788.097.604.233 1.103.639 1.41 1.143.318.523.395 1.092.214 1.596-.053.14-.116.267-.203.388v.002Zm-3.733-2.23a.92.92 0 0 0-.132.26c-.128.35-.063.749.162 1.127.244.4.644.72 1.131.91.488.191.992.221 1.429.087.411-.128.708-.388.836-.736.127-.349.063-.749-.163-1.127-.244-.4-.644-.72-1.131-.91-.488-.191-.992-.221-1.428-.087a1.33 1.33 0 0 0-.697.476h-.007Z"/><path fill="#87C44E" d="M44.533 31.237a.444.444 0 0 0-.186.423.974.974 0 0 1-.116.603.975.975 0 0 1-.423.442.458.458 0 0 0-.237.394c0 .296.283.511.562.43.318-.093.708-.314.945-.824.279-.488.232-.934.128-1.248a.442.442 0 0 0-.673-.214v-.006Z"/><path fill="#fff" d="M44.347 31.66a.974.974 0 0 1-.116.603.975.975 0 0 1-.423.442.458.458 0 0 0-.237.394c0 .128.053.238.132.319l.203-.018s-.302-.21-.058-.389c.243-.179.562-.127.766-.748.202-.615-.063-.986-.063-.986h-.07a.454.454 0 0 0-.133.376v.005l-.001.002Z" opacity=".6"/><path fill="#000" d="M45.484 32.194c-.028.19-.093.395-.214.608a1.7 1.7 0 0 1-1.08.93.625.625 0 0 1-.569-.105.66.66 0 0 1 .082-1.113.785.785 0 0 0 .336-.348s0-.007.007-.012a.778.778 0 0 0 .093-.47.657.657 0 0 1 .278-.62.657.657 0 0 1 .586-.088.633.633 0 0 1 .411.407c.07.209.121.487.075.813h-.007l.002-.002Zm-1.7.87v.035a.228.228 0 0 0 .29.221c.365-.111.644-.348.818-.708 0 0 0-.012.005-.012a1.28 1.28 0 0 0 .111-1.073.24.24 0 0 0-.14-.14.246.246 0 0 0-.208.029.24.24 0 0 0-.098.22c.028.256-.018.505-.14.725-.109.226-.29.412-.515.534a.248.248 0 0 0-.123.168v.002Z"/><path fill="#D0000A" d="M28.708 24.517c1.088-.297 1.669-1.645 1.296-3.012s-1.558-2.234-2.646-1.937c-1.088.297-1.669 1.645-1.295 3.012.373 1.367 1.557 2.234 2.645 1.937Z"/><path fill="#fff" d="M26.082 21.271s1.359-2.64 3.605-.075c0 0-.54-1.544-1.712-1.735-1.173-.185-1.893 1.812-1.893 1.812v-.002Z" opacity=".6"/><path fill="#707070" d="M29.687 21.197s.48 2.722-1.282 2.722c-1.764 0-2.241-2.241-2.241-2.241l-.203-.047c-.011.309.024.627.11.952.371 1.364 1.556 2.235 2.64 1.933.686-.186 1.167-.795 1.34-1.556l-.364-1.758v-.007.002Z" opacity=".29"/><path fill="#000" d="M28.27 24.894c-.458 0-.922-.156-1.34-.465-.557-.406-.975-1.033-1.173-1.764-.197-.732-.156-1.48.116-2.119.284-.662.783-1.12 1.405-1.288.62-.17 1.282-.029 1.863.394.557.407.975 1.034 1.173 1.765.197.732.156 1.48-.116 2.118-.284.662-.783 1.12-1.405 1.29-.174.046-.349.069-.523.069Zm-.476-5.06a1.52 1.52 0 0 0-.353.046c-.43.116-.778.446-.987.922-.214.5-.244 1.103-.086 1.695.162.592.492 1.091.934 1.416.418.307.887.412 1.317.296.43-.116.777-.446.986-.922.214-.5.244-1.104.087-1.696-.163-.592-.493-1.091-.934-1.416-.307-.226-.639-.342-.964-.342Z"/><path fill="#FFD9AB" d="M45.183 19.09c-.597-.018-.62.435-.55 1.004a.342.342 0 0 1-.377.376 6.442 6.442 0 0 1-.709-.111c-.492-.11-.383.569-.383.569v.11s0 .69.47.504c.22-.087.48-.156.69-.214a.34.34 0 0 1 .423.325c.011.632.074 1.184.696 1.021.5-.132 1.143-.887 1.068-1.88-.076-.992-.708-1.689-1.328-1.707v.003Z"/><path fill="#FEFEFD" d="M44.613 19.525a.646.646 0 0 1 .319-.052c.62.017 1.254.714 1.328 1.707.03.4-.058.766-.209 1.062.284-.342.5-.853.458-1.445-.07-.992-.708-1.689-1.328-1.707-.377-.012-.528.163-.57.435h.002Z" opacity=".55"/><path fill="#000" d="M43.127 21.568c-.133-.186-.144-.453-.144-.527v-.093c-.023-.093-.058-.47.156-.674.074-.074.22-.15.446-.098.186.042.423.082.685.11a.175.175 0 0 0 .128-.047.159.159 0 0 0 .046-.127c-.041-.36-.07-.76.156-1.004.133-.144.325-.209.586-.202.77.023 1.433.848 1.509 1.874.081 1.127-.65 1.928-1.208 2.072-.243.063-.446.041-.603-.081-.284-.214-.314-.674-.319-1.12a.16.16 0 0 0-.058-.121c-.041-.028-.088-.042-.133-.028-.26.07-.492.14-.673.209-.22.081-.371.028-.458-.035a.412.412 0 0 1-.11-.11l-.006.006v-.004Zm2.049-2.299c-.221-.006-.279.063-.302.088-.116.128-.098.43-.063.713a.514.514 0 0 1-.151.43.518.518 0 0 1-.43.15 5.648 5.648 0 0 1-.725-.115c-.041-.012-.093-.018-.116.006-.058.052-.063.238-.046.354v.127s.005.012.005.019c0 .11.035.295.098.341.028.019.074 0 .116-.011.19-.075.43-.145.708-.22a.513.513 0 0 1 .446.092.533.533 0 0 1 .21.406c0 .226.01.709.173.83.058.046.156.053.284.018.43-.11.992-.806.934-1.689-.07-.928-.65-1.52-1.15-1.532l.005-.007h.004Z"/><path fill="#87C44E" d="M52.112 22.857a.81.81 0 0 0-.643.534c-.098.272-.29.62-.674.883a1.764 1.764 0 0 1-1.05.371.798.798 0 0 0-.701.453c-.232.476.046 1.056.569 1.15.597.104 1.405.057 2.206-.575.84-.573 1.131-1.323 1.219-1.927.07-.527-.395-.969-.922-.894v.007l-.004-.002Z"/><path fill="#fff" d="M51.47 23.391a1.78 1.78 0 0 1-.674.883 1.764 1.764 0 0 1-1.05.371.798.798 0 0 0-.702.453.82.82 0 0 0-.034.627l.348.133s-.325-.58.214-.674c.539-.093 1.015.244 1.846-.597.83-.84.69-1.649.69-1.649l-.116-.058a.822.822 0 0 0-.523.505v.006Z" opacity=".6"/><path fill="#000" d="M52.635 25.096a2.852 2.852 0 0 1-.72.702 2.674 2.674 0 0 1-2.153.55 1.018 1.018 0 0 1-.725-.538 1.03 1.03 0 0 1 .887-1.496c.268-.007.505-.094.709-.25l.018-.011c.214-.144.365-.348.453-.597.128-.36.441-.62.818-.679.325-.046.643.058.875.29.233.226.337.54.296.86a2.704 2.704 0 0 1-.458 1.184v-.015Zm-2.984.035-.028.046a.352.352 0 0 0 0 .326c.053.098.139.169.248.185.593.105 1.143-.041 1.638-.423.005 0 .011-.011.016-.011.516-.355.825-.836.906-1.428a.334.334 0 0 0-.098-.29.365.365 0 0 0-.604.139 1.876 1.876 0 0 1-.701.922 1.93 1.93 0 0 1-1.092.388.37.37 0 0 0-.29.151l.007-.007-.002.002Z"/><path stroke="#fff" stroke-miterlimit="10" stroke-width=".458" d="M30.047 26.907a.446.446 0 1 0 0-.892.446.446 0 0 0 0 .892ZM43.75 24.655a.632.632 0 1 0 0-1.264.632.632 0 0 0 0 1.264ZM46.511 29.82a.446.446 0 1 0 0-.892.446.446 0 0 0 0 .892Z" opacity=".5"/><path stroke="#fff" stroke-miterlimit="10" stroke-width=".325" d="M38.322 29.936a.319.319 0 1 0 0-.637.319.319 0 0 0 0 .637ZM31.84 22.363a.318.318 0 1 0 0-.637.318.318 0 0 0 0 .637Z" opacity=".5"/><path fill="#D0000A" d="M20.45 45.06c-.051-.418-.464-.725-1.038-1.15-.918-.678-2.177-1.613-2.206-3.237l.829-9.768c.028.04.063.081.098.116.209.22.476.337.771.337a1.3 1.3 0 0 0 .43-.077.373.373 0 0 0 .081-.04c.035-.023.83-.55.899-1.486.04-.557-.186-1.12-.674-1.683.075.03.151.053.233.076.446.121.755.395.917.806.256.655.105 1.603-.365 2.357-.441.702-.302 1.41.035 1.793.202.226.47.349.755.349.388 0 .766-.233 1.061-.644.151-.209.29-.476.4-.794.214-.61.279-1.19.237-1.73.04.092.075.185.116.283.18.465.26.906.256 1.335 0 .377-.082.702-.098.767l-.017.063c-.023.11-.04.169-.051.22a1.576 1.576 0 0 0-.063.395c-.007.237.035.47.133.702.155.376.51.62.898.62h.082a.723.723 0 0 0 .302-.104c.214-.145.295-.354.353-.558.04-.139.07-.255.093-.341.725 1.7.887 3.632.411 5.448 0 .012-.011.047-.011.058-.098.354-.191.744-.29 1.132-.535 2.176-.992 4.057-2.757 4.27-.895.11-1.433.477-1.765.802l-.04-.33-.017.012.002.001Z"/><path fill="#000" d="M20.259 30.893c-.04.088-.086.17-.14.244-.538.853-.353 1.724.07 2.211a1.34 1.34 0 0 0 1.015.465c.29 0 .86-.105 1.34-.79.117-.162.226-.355.326-.569-.012.058-.024.098-.029.121-.004.028-.016.058-.028.098 0 .012 0 .023-.006.035l-.04.174a1.94 1.94 0 0 0-.075.465c-.011.29.047.573.156.847.21.511.69.836 1.224.836h.11a.954.954 0 0 0 .464-.162.928.928 0 0 0 .237-.214c.423 1.41.47 2.942.087 4.398-.105.395-.203.79-.296 1.178-.58 2.369-1.01 3.83-2.461 4.004a3.417 3.417 0 0 0-1.48.511c-.167-.423-.592-.736-1.114-1.126-.9-.667-2.02-1.498-2.067-2.931l.778-9.111c.179.081.371.12.574.12.174 0 .353-.027.534-.092.058-.018.11-.047.162-.075.058-.041.384-.26.656-.65m-1.843-5.256s-.713 1.154.527 2.252c2.13 1.874.284 3.082.284 3.082a.977.977 0 0 1-.319.058c-1.154 0-1.01-2.524-.992-2.727l-1.056 12.39c.058 2.723 3.156 3.64 3.25 4.423.097.794.109 1.061.174 1.061.127 0 .457-1.038 2.013-1.23 2.35-.284 2.636-3.036 3.35-5.693 0 0 0-.012.004-.023a8.748 8.748 0 0 0-1.695-7.755c.098.145.794 1.166.662 1.898 0 0-.028.167-.145.574-.058.204-.116.295-.214.36a.278.278 0 0 1-.132.046h-.052a.628.628 0 0 1-.58-.406 1.32 1.32 0 0 1-.105-.557c0-.175.047-.268.098-.516.005-.03.017-.058.023-.088a3.92 3.92 0 0 0 .11-.848 3.834 3.834 0 0 0-.279-1.463c-.94-2.455-2.536-2.947-2.582-2.966.928.453 2.373 2.165 1.579 4.418-.11.295-.233.534-.36.713-.25.353-.528.499-.772.499a.657.657 0 0 1-.492-.232c-.26-.302-.342-.841 0-1.382.824-1.317.817-3.26-.748-3.686-1.545-.422-1.545-2.153-1.545-2.194l-.005-.012-.001.004Z"/><path fill="#fff" stroke="#000" stroke-width=".955" d="M9.678 79.008c1.707 0 3.243.642 4.442 1.838l.001.001.218.23c1.058 1.168 1.596 2.637 1.596 4.19a6.253 6.253 0 0 1-6.257 6.258h-.702v4.952H1.437V79.008h8.24ZM23.576 79.008v17.47H16.04v-17.47h7.537ZM33.245 79.008c2.998 0 5.503 2.452 5.503 5.503a5.11 5.11 0 0 1-3.512 4.83l2.968-.42.544-.078v7.634h-9.539a5.492 5.492 0 0 1-5.503-5.503c0-2.245 1.527-4.235 3.633-4.865l-3.088.432-.543.075v-7.608h9.537ZM48.437 79.008c2.997 0 5.503 2.452 5.503 5.503a5.11 5.11 0 0 1-3.512 4.83l2.968-.42.544-.078v7.634H44.4a5.493 5.493 0 0 1-5.502-5.503c0-2.245 1.527-4.235 3.633-4.865l-3.088.432-.543.075v-7.608h9.537ZM67.463 79.008l.055.416 2.195 16.513.072.54H53.972l.072-.54 2.195-16.513.055-.416h11.17ZM40.89 57.805v19.388H30.293l.002.002h-8.607V57.807h11.137l.057.41 1.344 9.506v.007l.007.01c.02-.007.034-.01.043-.016v-.035l-1.313-9.34-.076-.544h8.005Zm-12.569 9.488a.118.118 0 0 0-.016.004.225.225 0 0 0-.004.044v.047l1.29 9.104.044.044-1.282-9.182-.002-.017-.002-.017c0-.012-.004-.02-.005-.027l-.015-.003-.008.002ZM49.555 57.807v19.388h-8.302V57.806h8.302ZM67.404 57.809v8.371l-.543-.075L58.918 65h-.004c-.004.01-.008.021-.01.032l-.002.005.002.002.006.004a.166.166 0 0 0 .04.015l3.613.496h.001c2.799.374 4.838 2.822 4.838 5.555 0 3.374-2.77 6.087-6.087 6.087H50.726v-8.4l.545.078 7.97 1.128h.048l.016-.002.004-.015v-.006h-.019l-.016-.003-3.712-.525c-2.74-.376-4.834-2.82-4.834-5.556a6.075 6.075 0 0 1 6.087-6.087h10.589Z"/><path fill="#fff" stroke="#000" stroke-width=".955" d="M51.646 56.004a1.832 1.832 0 0 1 1.41 2.64v-.002l-1.11 2.217-.15.302-.336-.042-1.887-.236-.668-.084.3-.602 1.954-3.932.15-.303.337.042ZM11.552 57.432c2.74 0 5.27 1.026 7.19 2.998l.349.366a10.083 10.083 0 0 1 2.622 6.797c0 5.608-4.553 10.161-10.161 10.161h-.027c-2.574 0-4.957-.928-6.823-2.622l-.366-.35a10.055 10.055 0 0 1-2.972-7.189c0-5.58 4.553-10.161 10.161-10.161h.027Zm-.05 6.727c0 .002-.002.009-.002.022v6.825l.001.024.024.002a.066.066 0 0 0 .022-.003c0-.003.004-.01.004-.023v-6.825c0-.014-.003-.02-.004-.022a.066.066 0 0 0-.022-.003c-.013 0-.02.003-.022.003Z"/><path fill="#fff" d="M14.653 61.207H8.498v14.32h6.155v-14.32Z"/><path fill="#2C2C2C" stroke="#FFCA28" stroke-miterlimit="10" stroke-width=".159" d="M15.915 65.007a4.725 4.725 0 0 0-.78-.655.13.13 0 0 0-.092-.06c-.566-.373-1.29-.73-2.15-1.053-1.18-.445-2.354-.7-3.224-.7-.3 0-.543.032-.724.093-.285.096-.456.396-.462.826-.007.352.1.764.318.94-.599 3.017-.13 7.758.355 8.402.057.074.123.116.196.12.252.019.343-.18.396-.3.062-.139.075-.137.133-.127.046.008.055.252.056.345.009.224.015.456.165.582.06.053.134.078.223.078.019 0 .04 0 .06-.003.383-.05.441-.534.493-.962.02-.173.061-.533.138-.564.038-.017.043-.019.122.1.1.15.267.4.679.261.386-.13.393-.456.4-.771.006-.267.013-.57.212-.877.42-.64 2.345-3.127 2.732-3.623.04.01.08.017.124.017.53 0 1.037-.823 1.101-.992.053-.138.02-.543-.47-1.074v-.003Z"/><path fill="#FFCA28" d="M12.824 63.504c.194.073.375.146.546.22v.004c.192.644.364 1.299.515 1.954a7.8 7.8 0 0 0-1.277-.657c0-.025 0-.051-.011-.074a12.831 12.831 0 0 1-.705-1.755c.305.09.617.192.928.31l.004-.002ZM11.566 63.103c.186.609.418 1.207.69 1.781-.428-.159-.802-.278-1.133-.363-.003-.01-.003-.018-.008-.025a9.292 9.292 0 0 1-.716-1.625c.361.046.756.126 1.167.232ZM9.698 62.823c.108 0 .223.005.339.013a.176.176 0 0 0 .04.046c.036.025.06.098.08.158.163.48.367.947.605 1.393a7.717 7.717 0 0 0-.858-.14.769.769 0 0 0-.081-.223l-.62-1.204c.134-.027.303-.042.497-.042l-.002-.001ZM8.797 63.461c0-.111.023-.345.146-.477l.627 1.214c.011.02.021.043.031.064a17.137 17.137 0 0 1-.136-.01c-.197-.015-.34-.023-.426-.056-.103-.038-.249-.363-.244-.733l.002-.002ZM15.315 66.787a.187.187 0 0 1-.1-.027c-.112-.063-.23-.172-.377-.313-.16-.15-.349-.327-.604-.523a31.214 31.214 0 0 0-.526-2.052c.506.231.91.46 1.232.676.277.685.5 1.398.657 2.118a.5.5 0 0 1-.282.12ZM16.151 65.982c-.03.08-.156.28-.317.46a13.404 13.404 0 0 0-.469-1.58c.707.58.82 1.023.786 1.12Z"/><path fill="#FFCA28" d="M9.602 64.262a17.172 17.172 0 0 1-.136-.01c-.197-.015-.34-.023-.426-.056-.103-.038-.25-.363-.244-.733 0-.111.023-.345.146-.478l.627 1.214c.011.02.021.043.031.065l.002-.002ZM10.762 64.432a7.694 7.694 0 0 0-.858-.141.77.77 0 0 0-.081-.223l-.62-1.204c.134-.026.303-.041.497-.041.108 0 .222.005.338.013a.176.176 0 0 0 .04.046c.037.025.062.098.082.158.162.48.366.947.603 1.393l-.001-.001ZM12.256 64.884c-.428-.159-.802-.278-1.133-.363-.003-.01-.003-.018-.008-.025a9.292 9.292 0 0 1-.716-1.625c.361.046.756.126 1.167.232.186.609.418 1.207.69 1.781ZM16.151 65.982c-.03.08-.156.28-.317.46a13.404 13.404 0 0 0-.469-1.58c.707.58.82 1.023.786 1.12ZM15.598 66.666a.5.5 0 0 1-.282.12.187.187 0 0 1-.1-.026c-.112-.063-.23-.172-.377-.313-.16-.15-.349-.327-.604-.523a31.214 31.214 0 0 0-.526-2.052c.506.231.91.46 1.232.676.277.685.5 1.398.657 2.118ZM13.887 65.682a7.796 7.796 0 0 0-1.277-.657c0-.025 0-.051-.011-.074a12.83 12.83 0 0 1-.705-1.755 13.016 13.016 0 0 1 1.474.529v.005c.193.643.365 1.299.516 1.954l.003-.002ZM14.609 66.69c-.4-.376-1.002-.943-2.447-1.489-1.417-.534-2.253-.594-2.752-.628a3.83 3.83 0 0 1-.345-.035c-.257 1.332-.332 3.176-.205 5.095.129 1.946.4 2.938.52 3.04.034 0 .052-.018.103-.132.057-.13.154-.342.443-.29.272.05.28.363.289.615.003.131.01.332.063.378.015.012.043.012.064.008.165-.02.208-.404.244-.714.045-.375.083-.697.314-.793.258-.106.388.09.467.206.093.14.146.218.352.149.188-.063.2-.18.206-.51.008-.29.016-.653.26-1.028.418-.638 2.283-3.047 2.717-3.608a4.101 4.101 0 0 1-.297-.262l.004-.001Zm-5.116 2.746a.17.17 0 0 1-.157.114.182.182 0 0 1-.063-.011c-.103-.04-.128-.143-.097-.224.03-.081.116-.143.22-.101.104.038.129.14.097.222Zm.126-2.97c.038-.1.113-.18.213-.225a.391.391 0 0 1 .308-.011.41.41 0 0 1 .237.52.411.411 0 0 1-.52.236.405.405 0 0 1-.238-.52Zm.647 1.736v.011c.01.125-.026.221-.11.286a.306.306 0 0 1-.494-.186c-.018-.105.019-.2.106-.287l.009-.008c.073-.073.187-.093.298-.05a.28.28 0 0 1 .191.234Zm-.11 3.181a.27.27 0 0 1-.35.158.279.279 0 0 1-.157-.352.273.273 0 0 1 .35-.157c.138.053.21.212.16.351h-.002Zm.432-1.153a.335.335 0 0 1-.317.22.356.356 0 0 1-.272-.13c-.088-.108-.116-.3-.008-.425l.008-.01a.34.34 0 0 1 .212-.13.337.337 0 0 1 .319.12l-.032.024.039-.015a.35.35 0 0 1 .05.345v.001Zm.008-4.483c-.04.068-.13.101-.2.101h-.019a.24.24 0 0 1-.215-.2.226.226 0 0 1 .07-.244.25.25 0 0 1 .406.156c.015.07-.012.132-.043.189l.001-.002Zm.878 4.986a.215.215 0 0 1-.201.146.216.216 0 0 1-.081-.017c-.131-.05-.163-.179-.125-.282a.21.21 0 0 1 .28-.133.207.207 0 0 1 .128.125.225.225 0 0 1-.003.161h.002Zm.023-2.858a.291.291 0 0 1-.168-.367.29.29 0 0 1 .367-.167c.144.056.22.222.166.367a.276.276 0 0 1-.15.159.284.284 0 0 1-.216.007v.001Zm.436 1.29a.174.174 0 0 1-.081.097.15.15 0 0 1-.075.018.172.172 0 0 1-.063-.013c-.104-.04-.13-.141-.096-.223.03-.08.116-.142.219-.102a.16.16 0 0 1 .1.096.174.174 0 0 1-.004.126v.001Zm.214-3.216a.219.219 0 0 1-.2.148.216.216 0 0 1-.082-.017.21.21 0 0 1-.128-.124.224.224 0 0 1 .004-.161c.038-.103.147-.18.28-.131.131.051.163.18.124.284l.002.001Zm1.075 1.581a.423.423 0 0 1-.323-.078.406.406 0 0 1-.171-.279v-.016a.443.443 0 0 1 .155-.43c.132-.104.356-.138.506-.013.045.036.078.08.098.121.07.09.103.2.093.307a.435.435 0 0 1-.356.386l-.002.002Z"/></svg>