<svg xmlns="http://www.w3.org/2000/svg" fill="none" viewBox="0 0 101 136"><g clip-path="url(#a)"><path fill="#D0000A" d="M71.023 34.887s-.804-8.205 1.761-13.076c0 0-4.08-1.17-3.467-6.852l3.467 1.532s-4.73-5.77 0-14.88l10.773 7.664s-.722-4.058 1.171-5.14c0 0 5.36 4.901 9.313 7.476a12.278 12.278 0 0 1 3.631 3.631c1.328 2.074 2.32 5.026.705 8.352a2.776 2.776 0 0 0-.253 1.607c.09.59.295 1.418.762 2.484.41.935.492 1.991.13 2.943-.442 1.148-1.564 2.352-4.287 2.598-1.508.13-3.017-.099-4.45-.574-.91-.303-1.985-.706-2.648-1.106 0 0 2.073 4.353 4.041 7.066 1.197 1.647 2.221 3.418 2.943 5.327 2.139 5.689 3.352 15.533-10.944 19.886l1.132 11.107a3.441 3.441 0 0 0 1.991 2.795c1.51.68 3.353 1.942 2.92 3.868h-8.116s-6.131-4.058-6.944-10.73v-6.672h-5.41s5.951 9.558-5.95 13.075c0 0 3.336 1.804 2.886 4.327H39.573c-8.477 0-11.54-5.763-11.54-5.763-4.509-5.944-1.264-17.862-1.264-17.862l1.083 7.214c1.099 10.543 8.837 10.64 8.837 10.64h2.246l4.262-.154c-.565-6.927.443-22.812 19.272-32.616"/><path fill="#fff" d="M53.046 50.04s-10.058 7.762-9.46 24.435c0 0 3.05-17.418 9.46-24.435ZM86.285 30.25s9.68 18.527 9.018 22.199l.843-1.985-1.876-7.312-6.174-10.559-1.81-2.345v.002ZM71.022 34.891l3.173-13.672s-4.311-2.5-4.616-5.869v2.558l.755 1.657 1.204 1.893.843.63-.393 1.05-.902 5.123-.033 4.009-.033 2.63v-.006l.002-.003ZM98.827 20.155s.778 0-14.05-15.385c0 0-.68 3.819.558 7.213L72.203 4.065s-1.844 6.238 2.066 13.6l-1.81-2.156a6.343 6.343 0 0 1-1.418-3.09l-.222-1.361A11.717 11.717 0 0 1 70.9 6.82l.754-3.707 1.082-2.073 10.337 7.542 1.443-4.78 6.738 6.23s8.919 5.426 7.565 10.116l.01.007h-.003Z" opacity=".4"/><path fill="#fff" d="M90.395 24.553c1.127-.01 2.034-.942 2.024-2.083-.009-1.141-.93-2.06-2.056-2.05-1.127.01-2.034.942-2.025 2.083.01 1.14.93 2.06 2.057 2.05Z"/><path fill="#fff" d="m92.072 21.4-.138-.254a2.037 2.037 0 0 0-1.565-.729c-1.122.01-2.034.942-2.024 2.083 0 .139.016.27.04.4l.082.06s.492-3.238 3.598-1.566l.01.01-.003-.005Z" opacity=".6"/><path fill="#000" d="M90.383 24.801a2.29 2.29 0 0 1-2.286-2.294c0-.614.23-1.204.656-1.647a2.26 2.26 0 0 1 1.614-.695h.016a2.28 2.28 0 0 1 1.607.663c.434.433.68 1.016.68 1.63 0 .614-.23 1.204-.656 1.647a2.26 2.26 0 0 1-1.614.696h-.017Zm0-4.133h-.016c-.476 0-.926.197-1.254.541a1.834 1.834 0 0 0 .017 2.566c.337.335.778.525 1.253.525h.017c.475 0 .925-.197 1.253-.542a1.834 1.834 0 0 0-.017-2.565 1.766 1.766 0 0 0-1.253-.525Z"/><path fill="#000" d="M70.442 31.665c.016-2.739.318-6.649 1.712-9.615-1.148-.557-3.812-2.378-3.296-7.14l.065-.624 2.664 1.181c-1.164-2.247-2.771-7.23.778-14.066l.246-.466 10.362 7.377c-.089-1.377 0-3.704 1.516-4.566l.288-.164.246.23c.056.049 5.386 4.9 9.247 7.426 1.516.991 2.82 2.296 3.763 3.77 1.295 2.024 2.476 5.196.728 8.804a2.31 2.31 0 0 0-.213 1.335c.106.706.352 1.51.729 2.37.482 1.098.532 2.27.138 3.286-.45 1.171-1.624 2.624-4.68 2.893-1.5.132-3.058-.065-4.64-.59a22.01 22.01 0 0 1-1.5-.548c.755 1.476 2.107 4.015 3.403 5.803 1.335 1.844 2.32 3.624 3 5.435 1.205 3.222 2.205 7.968.066 12.288-1.787 3.632-5.475 6.354-10.95 8.083l1.099 10.73a2.987 2.987 0 0 0 1.729 2.418c2.443 1.106 3.566 2.673 3.172 4.392l-.082.361h-8.624l-.115-.075c-.253-.17-6.32-4.254-7.148-11.058v-6.271h-4.18c.664 1.351 1.845 4.425.697 7.443-.902 2.368-3.041 4.156-6.361 5.32 1.04.771 2.631 2.296 2.28 4.271l-.066.377H39.57c-8.656 0-11.82-5.763-11.95-6.009-4.55-5.993-1.434-17.707-1.303-18.199l.574-2.106 1.41 9.378c1.05 10.009 8.09 10.248 8.385 10.248h2.247l3.77-.139c-.45-6.829.745-22.516 19.058-32.314m1.073-.162.345.434-.492.253c-18.754 9.755-19.55 25.747-19.026 32.167l.042.475-4.747.18h-2.27c-.089 0-8.164-.229-9.296-11.048l-.705-4.688c-.663 3.753-1.394 10.927 1.706 15.017.164.286 3.099 5.583 11.172 5.583h26.158c0-1.975-2.657-3.45-2.69-3.467l-.974-.532 1.066-.311c3.565-1.05 5.812-2.756 6.688-5.059 1.336-3.5-.974-7.304-1-7.337l-.434-.705h6.699v7.131c.712 5.845 5.812 9.69 6.632 10.27h7.574c.075-1.41-1.4-2.394-2.706-2.99a3.935 3.935 0 0 1-2.263-3.166l-1.171-11.475.36-.105c5.427-1.648 9.041-4.246 10.757-7.722 1.984-4.032 1.04-8.51-.108-11.557-.656-1.739-1.598-3.444-2.877-5.223-1.968-2.722-4-6.96-4.081-7.14l-.656-1.378 1.302.787c.516.312 1.401.68 2.558 1.066 1.46.483 2.903.672 4.271.548 2.074-.18 3.386-.958 3.901-2.303.302-.794.263-1.712-.122-2.59-.41-.943-.679-1.812-.794-2.608-.089-.63.01-1.28.295-1.87 1.254-2.582 1.024-5.245-.679-7.902a11.84 11.84 0 0 0-3.49-3.493c-3.419-2.23-7.936-6.23-9.09-7.272-1.034.958-.86 3.5-.69 4.467l.197 1.106-11.245-8.008c-4.13 8.435 0 13.682.187 13.903l1.204 1.483-4.622-2.04c-.23 4.664 3.04 5.687 3.189 5.73l.54.154-.262.5c-2.467 4.687-1.722 12.737-1.712 12.812l-.91.138"/><path fill="#000" d="m72.154 22.048.424.2.197-.418-.415-.201-.204.421-.002-.002Zm-3.23-7.762.19-.428-.589-.26-.068.639.467.05Zm2.666 1.181-.19.429 1.218.539-.614-1.183-.414.215ZM72.613.932l.272-.382L72.45.24l-.248.473.415.218-.003.002Zm10.36 7.378-.272.382.804.571-.063-.984-.466.03h-.003Zm1.804-4.73.319-.342-.253-.235-.3.171.232.406h.002Zm.246.23-.318.341.007.007.007.007.304-.356Zm13.525 21.338-.464.067.462-.067h.002Zm-3.811 8.548.04.467-.043-.467h.003Zm-6.139-1.138.18-.431-1.173-.488.579 1.132.417-.213h-.003Zm-4.484 31.609-.14-.445-.364.115.04.38.467-.048-.003-.002Zm5.918 17.901v.469h.373l.082-.363-.457-.103.002-.003Zm-8.624 0-.253.394.115.075h.138v-.469Zm-.115-.072-.262.386h.005l.004.007.253-.393Zm-7.147-11.058h-.469v.056l.469-.056Zm0-6.272h.468v-.469h-.468v.469Zm-4.18 0v-.469h-.75l.33.675.42-.206ZM64.301 77.43l-.154-.44-.835.292.71.525.28-.375v-.002Zm2.214 4.648v.468h.394l.068-.389-.462-.08Zm-38.898-6.01.413-.22-.019-.033-.023-.03-.373.283h.002Zm-.728-20.305.461-.07-.913-.054.452.122v.002Zm1.41 9.378.466-.049v-.009l-.002-.01-.462.07-.002-.002ZM38.931 75.39v.469h.016l-.016-.469Zm3.77-.14.016.468.48-.019-.033-.48-.466.03h.002Zm20.478-32.043.215.414.504-.26-.354-.445-.367.29h.002ZM43.7 76.1l.018.469.49-.019-.042-.49-.466.04Zm-4.747.18v.47h.019l-.019-.47ZM27.388 65.234l.466-.05v-.009l-.002-.009-.462.07-.002-.002Zm-.705-4.69.461-.07-.923-.012.462.082Zm1.705 15.017.405-.232-.014-.026-.018-.023-.373.283v-.002Zm37.33 5.583v.469h.47v-.47h-.47Zm-2.687-3.467-.225.41.007.004.007.005.209-.42h.002Zm-.977-.535-.13-.45-1.086.32.994.54.225-.41h-.003Zm6.755-12.705-.399.246.012.02.012.016.375-.282Zm-.434-.705v-.468h-.838l.44.712.398-.246v.002Zm6.696 0h.469v-.468h-.469v.468Zm0 7.132h-.469v.056l.469-.056Zm6.633 10.27-.272.382.121.087h.15v-.468Zm7.574 0v.47h.443l.023-.444-.466-.023v-.002Zm-6.14-17.631-.134-.448-.373.11.04.387.466-.047v-.002Zm.36-.106.134.448-.136-.448h.002Zm3.69-31.642.426-.194v-.005l-.002-.005-.422.202-.002.002Zm-.656-1.377.241-.401-1.335-.806.67 1.408.422-.201h.002Zm8.132 2.401-.04-.466.042.466h-.002Zm3.9-2.303.436.169-.438-.169h.003ZM84.68 4.744l.314-.347-.319-.286-.314.29.319.343Zm-.492 5.574-.272.381.932.663-.199-1.127-.461.083ZM72.94 2.31l.272-.382-.45-.319-.243.495.419.206h.002Zm.188 13.902.363-.295v-.005l-.007-.005-.356.303v.002Zm1.206 1.483-.19.429.553-.724-.363.295Zm-4.624-2.04.19-.43-.624-.273-.033.679.467.023Zm3.188 5.73.13-.45-.125.45h-.005Zm.541.155.415.218.267-.509-.55-.16-.13.45h-.002Zm-1.975 13.314.07.461.444-.068-.05-.445-.464.052Zm-.557-3.186c.016-2.725.32-6.549 1.668-9.42l-.848-.4c-1.439 3.065-1.74 7.062-1.757 9.813l.934.004.003.003Zm1.45-10.04a5.336 5.336 0 0 1-2.087-1.831c-.68-1.022-1.195-2.556-.95-4.838l-.93-.101c-.269 2.48.289 4.238 1.1 5.456a6.259 6.259 0 0 0 2.457 2.156l.41-.841Zm-3.034-6.67.066-.623-.93-.098-.066.623.93.099Zm-.59-.245 2.663 1.18.38-.855-2.664-1.18-.38.855Zm3.27.539c-1.108-2.14-2.687-6.961.778-13.636l-.83-.43c-3.633 6.997-1.998 12.144-.777 14.497l.832-.431h-.003Zm.778-13.633.246-.467-.827-.435-.246.466.827.436Zm-.44-.305 10.362 7.378.543-.762L72.885.553l-.543.761Zm11.1 6.965c-.045-.667-.042-1.541.145-2.34.188-.804.541-1.45 1.136-1.788l-.461-.813c-.92.523-1.37 1.47-1.586 2.39-.216.925-.213 1.905-.167 2.612l.935-.06h-.002Zm1.281-4.128.286-.164-.464-.813-.288.164.464.813h.002Zm-.264-.23.246.23.64-.684-.247-.23-.637.685h-.002Zm.26.244.063.057c.044.04.105.096.185.166l.672.6c.57.503 1.366 1.194 2.28 1.965 1.825 1.537 4.14 3.397 6.094 4.676l.513-.782c-3.828-2.502-9.119-7.321-9.198-7.39l-.61.71v-.002Zm9.296 7.462c1.464.958 2.72 2.214 3.624 3.631l.79-.503c-.98-1.535-2.331-2.884-3.901-3.91l-.513.782Zm3.624 3.631c1.249 1.952 2.35 4.946.703 8.348l.844.408c1.843-3.812.585-7.162-.757-9.26l-.787.505h-.003Zm.7 8.35a2.77 2.77 0 0 0-.255 1.607l.926-.135c-.052-.354.004-.72.17-1.066l-.843-.406h.003Zm-.252 1.61c.114.754.375 1.598.763 2.485l.858-.374c-.365-.834-.597-1.596-.696-2.252l-.925.14Zm.763 2.488c.44.998.476 2.04.132 2.928l.871.338c.443-1.144.382-2.446-.147-3.646l-.858.377.002.003Zm.132 2.93a3.495 3.495 0 0 1-1.204 1.577c-.65.483-1.622.89-3.081 1.02l.082.932c1.597-.14 2.74-.595 3.556-1.2a4.42 4.42 0 0 0 1.52-1.993l-.873-.335Zm-4.285 2.594c-1.432.124-2.924-.06-4.452-.57l-.295.889c1.638.543 3.259.75 4.829.611l-.082-.932v.002Zm-4.452-.567c-.56-.187-1.05-.363-1.469-.536l-.358.864c.45.188.96.37 1.532.56l.295-.888Zm-2.064.108c.755 1.476 2.12 4.046 3.44 5.866l.756-.548c-1.272-1.755-2.61-4.266-3.364-5.742l-.834.426.002-.002Zm3.44 5.864c1.316 1.816 2.277 3.559 2.94 5.325l.876-.328c-.698-1.858-1.703-3.673-3.06-5.545l-.756.548Zm2.94 5.325c1.19 3.182 2.136 7.771.084 11.916l.839.414c2.226-4.495 1.174-9.397-.047-12.658l-.876.328Zm.084 11.918c-1.71 3.477-5.266 6.136-10.671 7.844l.28.892c5.546-1.752 9.367-4.535 11.232-8.321l-.839-.413-.002-.002Zm-10.997 8.336 1.099 10.73.93-.096-1.099-10.73-.93.096Zm1.099 10.73a3.456 3.456 0 0 0 2.003 2.797l.386-.853a2.519 2.519 0 0 1-1.457-2.038l-.93.094h-.002Zm2.003 2.797c1.176.532 1.989 1.157 2.462 1.814.464.644.612 1.328.445 2.05l.912.208c.23-1 .011-1.959-.6-2.804-.6-.834-1.57-1.547-2.837-2.118l-.387.852.005-.002Zm2.907 3.864-.082.36.912.209.082-.361-.912-.209Zm.375-.003h-8.624v.935h8.624v-.935Zm-8.37.073-.116-.075-.506.787.115.073.506-.788v.003Zm-.106-.066c-.113-.075-1.654-1.113-3.268-2.963-1.617-1.851-3.278-4.49-3.679-7.765l-.93.113c.43 3.528 2.214 6.332 3.901 8.268 1.69 1.935 3.306 3.024 3.449 3.123l.525-.776h.002Zm-6.942-10.671v-6.272h-.935v6.272h.935Zm-.468-6.74h-4.18v.934h4.18v-.935Zm-4.602.674c.652 1.326 1.755 4.245.68 7.07l.874.333c1.22-3.207-.038-6.438-.715-7.815l-.841.412h.002Zm.68 7.07c-.837 2.196-2.835 3.909-6.08 5.045l.31.883c3.396-1.19 5.676-3.053 6.644-5.595l-.874-.332Zm-6.202 5.862c.5.37 1.108.907 1.551 1.568.438.656.694 1.41.546 2.244l.92.164c.205-1.14-.159-2.136-.688-2.928-.525-.788-1.23-1.399-1.773-1.8l-.558.752h.002Zm2.097 3.817-.066.377.924.16.065-.378-.923-.16Zm.396-.012H39.57v.935h26.945v-.935Zm-26.945 0c-8.403 0-11.442-5.583-11.538-5.76l-.825.44c.167.314 3.456 6.255 12.366 6.255v-.935h-.003Zm-11.58-5.824c-2.167-2.854-2.537-7.132-2.312-10.85.222-3.692 1.026-6.71 1.089-6.944l-.904-.241c-.068.258-.89 3.343-1.118 7.13-.227 3.76.12 8.335 2.502 11.472l.745-.565-.002-.002Zm-1.223-17.791.574-2.106-.902-.246-.574 2.106.902.246Zm-.342-2.16 1.41 9.378.926-.138-1.41-9.379-.926.139Zm1.408 9.357c.537 5.126 2.624 7.818 4.678 9.214 2.034 1.382 3.972 1.45 4.173 1.45v-.935c-.091 0-1.823-.049-3.648-1.288-1.801-1.225-3.762-3.655-4.273-8.537l-.93.098v-.002Zm8.851 10.664h2.247v-.935h-2.247v.935Zm2.263 0 3.772-.138-.035-.935-3.772.138.035.935Zm4.222-.637c-.445-6.73.726-22.196 18.813-31.87l-.44-.824c-18.54 9.917-19.762 25.832-19.306 32.757l.935-.06-.002-.003Zm19.298-32.155.344.433.733-.58-.344-.434-.733.58Zm.496-.272-.492.253.43.832.491-.253-.429-.832Zm-.492.253c-18.99 9.878-19.808 26.106-19.276 32.62l.932-.078c-.518-6.323.258-22.081 18.775-31.712l-.43-.83ZM43.195 75.665l.04.476.932-.08-.042-.475-.933.08h.003Zm.49-.03-4.747.18.035.935 4.746-.18-.035-.935Zm-4.73.178h-2.27v.935h2.27v-.935Zm-2.27 0s-1.934-.047-4.002-1.392c-2.046-1.328-4.276-3.959-4.829-9.24l-.93.099c.579 5.54 2.952 8.434 5.248 9.926 2.272 1.476 4.411 1.544 4.512 1.544v-.937Zm-8.833-10.65-.706-4.688-.925.138.705 4.688.926-.138Zm-1.628-4.702c-.336 1.895-.69 4.664-.565 7.485.124 2.811.724 5.74 2.357 7.898l.745-.565c-1.464-1.933-2.048-4.636-2.17-7.373-.12-2.727.223-5.421.553-7.281l-.92-.164Zm1.759 15.331c.194.342 3.254 5.817 11.578 5.817v-.935c-7.823 0-10.634-5.114-10.767-5.346l-.813.464h.002Zm11.578 5.82H65.72v-.935H39.56v.934Zm26.626-.47c0-1.192-.792-2.17-1.483-2.81a8.01 8.01 0 0 0-1.464-1.073l-.42.836c-.016-.01.617.34 1.25.923.643.597 1.18 1.342 1.18 2.125h.937Zm-2.933-3.876-.975-.532-.447.82.974.532.448-.823v.003Zm-1.069.325 1.066-.311-.262-.898-1.066.312.262.897Zm1.066-.311c3.634-1.069 6.043-2.842 6.994-5.34l-.874-.332c-.804 2.108-2.886 3.746-6.384 4.774l.264.898Zm6.996-5.34c.72-1.886.45-3.828.021-5.269a12.387 12.387 0 0 0-.681-1.768 8.564 8.564 0 0 0-.263-.511c-.033-.061-.06-.108-.082-.143a1.641 1.641 0 0 0-.059-.094l-.75.563c-.018-.026-.025-.038 0 .004a9.375 9.375 0 0 1 .305.583c.192.399.431.963.63 1.631.401 1.345.62 3.055 0 4.67l.875.332.004.002Zm-1.04-7.75-.433-.705-.797.492.433.705.797-.492Zm-.832.01h6.698v-.935h-6.698v.935Zm6.23-.469v7.132h.934V63.73h-.934Zm.002 7.19c.37 3.044 1.881 5.548 3.38 7.352 1.503 1.806 3.016 2.94 3.445 3.245l.54-.764c-.39-.276-1.834-1.357-3.265-3.08-1.434-1.725-2.83-4.066-3.172-6.868l-.928.113v.002Zm7.097 10.681h7.574v-.935h-7.575v.935Zm8.04-.443c.047-.892-.403-1.614-.982-2.164-.576-.549-1.323-.97-1.996-1.277l-.391.85c.63.29 1.272.66 1.74 1.106.467.443.72.918.692 1.436l.935.05h.002Zm-2.975-3.441a3.463 3.463 0 0 1-1.992-2.788l-.93.098a4.403 4.403 0 0 0 2.533 3.54l.389-.85Zm-1.994-2.788-1.172-11.475-.93.096 1.172 11.475.93-.096ZM83.27 63.95l.36-.107-.264-.898-.36.108.264.897Zm.363-.107c5.494-1.668 9.247-4.328 11.04-7.964l-.84-.414c-1.632 3.315-5.11 5.854-10.47 7.48l.272.895-.002.003Zm11.04-7.964c2.07-4.21 1.072-8.841-.09-11.93l-.876.331c1.134 3.01 2.022 7.33.124 11.187l.839.412h.002Zm-.09-11.93c-.672-1.782-1.637-3.523-2.935-5.329l-.76.546c1.261 1.752 2.182 3.42 2.819 5.114l.876-.33Zm-2.935-5.329c-1.94-2.683-3.957-6.886-4.037-7.059l-.853.387c.085.187 2.132 4.458 4.128 7.22l.76-.548h.002Zm-4.04-7.068-.655-1.378-.846.403.656 1.378.846-.403Zm-1.318-.776 1.302.787.483-.8-1.303-.788-.482.801Zm1.302.787c.563.34 1.488.722 2.652 1.109l.295-.888c-1.15-.382-1.993-.738-2.464-1.022l-.483.801Zm2.652 1.11c1.511.502 3.02.701 4.461.573l-.084-.933c-1.298.117-2.676-.06-4.082-.527l-.295.888Zm4.459.57c2.162-.187 3.69-1.021 4.299-2.603l-.874-.335c-.427 1.108-1.52 1.832-3.505 2.006l.082.932h-.002Zm4.299-2.603c.351-.923.297-1.97-.131-2.944l-.858.377c.342.777.368 1.57.115 2.235l.874.332Zm-.131-2.942c-.399-.919-.654-1.746-.762-2.488l-.925.133c.122.848.407 1.76.83 2.727l.857-.372Zm-.762-2.486a2.75 2.75 0 0 1 .253-1.598l-.84-.41a3.687 3.687 0 0 0-.338 2.14l.925-.132Zm.253-1.6c1.333-2.746 1.076-5.583-.707-8.36l-.788.507c1.629 2.535 1.828 5.025.654 7.445l.841.41v-.002Zm-.707-8.357a12.278 12.278 0 0 0-3.632-3.631l-.51.785a11.32 11.32 0 0 1 3.352 3.352l.787-.504.003-.002Zm-3.63-3.633c-3.382-2.207-7.873-6.183-9.033-7.228l-.626.696c1.153 1.038 5.696 5.062 9.149 7.314l.51-.785v.003ZM84.36 4.402c-.656.61-.878 1.65-.944 2.54-.068.92.021 1.839.112 2.352l.921-.164a9.22 9.22 0 0 1-.1-2.12c.063-.863.271-1.575.648-1.922l-.637-.686Zm-.83 4.892.198 1.105.92-.163-.196-1.106-.921.164Zm.929.644L73.21 1.93l-.544.762 11.248 8.007.544-.761Zm-11.94-7.834c-4.242 8.661-.006 14.108.254 14.41l.712-.606c-.117-.139-4.144-5.185-.124-13.394L72.52 2.1v.003Zm.247 14.403 1.204 1.483.726-.59-1.204-1.483-.726.59Zm1.757.762L69.9 15.228l-.377.855 4.623 2.04.377-.854Zm-5.279-1.638c-.121 2.458.684 4.006 1.582 4.946.883.925 1.823 1.223 1.949 1.258l.25-.902-.037-.012-.103-.037a3.29 3.29 0 0 1-.354-.167 4.17 4.17 0 0 1-1.026-.787c-.717-.75-1.431-2.045-1.323-4.252l-.935-.047h-.003Zm3.526 6.204.541.154.258-.9-.54-.154-.259.9Zm.256-.511-.263.5.83.435.262-.502-.83-.435v.002Zm-.26.5c-1.284 2.438-1.718 5.708-1.84 8.332-.121 2.636.069 4.693.075 4.75l.93-.104s-.011-.124-.028-.36a38.101 38.101 0 0 1-.04-4.24c.12-2.595.549-5.692 1.732-7.94l-.827-.437-.002-.002Zm-1.37 12.566-.91.138.14.925.91-.138-.14-.925Z"/><path fill="#FFCA28" d="m24.33 28.849 5.665 3.713.344 1.844 1.73.115 1.154 2.05 1.361 1.46-.721 1.187 1.115.614.991-.426 1.581 1.893-.705 1.607.574 1.312 2.91 3 6.541-1.787 1.509 1.401 2.91-1.279 2.23.837.377 1.827 1.336.075 1.197-.738 2.755 1.45 1.549.279.344 1.893h1.91l1.262-.984 3.828.984 5.83-6.148.531-7.18-4.796-7.673-5.271-4.458-4.967-1.188-27.853 3.369-7.223.95h.002Z"/><path fill="#fff" d="m25.305 29.023 31.108 1.23s19.836 1.082 17.074 14.984c0 0 5.278-7.689-6.042-17.534 0 0-3.116-5.73-19.994-1.909l-22.45 2.837" opacity=".6"/><path stroke="#000" stroke-miterlimit="10" stroke-width="1.755" d="M38.188 48.301c1.008-6.845-.93-10.631-5.595-14.19a34.998 34.998 0 0 0-3.106-2.132 28.076 28.076 0 0 0-3.214-1.706l-3.533-1.597 34.715-4.049c3.166-.417 6.41.378 8.91 2.362 2.893 2.296 5.377 5.672 7.017 8.46 5.123 8.738-5.311 15.73-5.311 15.73-8.034-6.961-12.321-7.772-18.052-6.903-3.073.467-6.042 1.45-8.82 2.828l-2.418 1.197h-.593Z"/><path fill="#87C44E" d="M50.429 31.998c-.23-.239-.574-.328-.893-.239a1.935 1.935 0 0 1-1.23-.05 1.93 1.93 0 0 1-1-.704.883.883 0 0 0-.853-.345.888.888 0 0 0-.672 1.247c.288.607.836 1.295 1.919 1.623 1.05.394 1.918.18 2.509-.13a.888.888 0 0 0 .22-1.395v-.01.003Z"/><path fill="#fff" d="M49.536 31.76c-.311.088-.745.13-1.23-.05a1.93 1.93 0 0 1-1-.705.894.894 0 0 0-1.443.023l.098.4s.319-.662.745-.238c.427.426.427 1.066 1.713 1.286 1.286.213 1.926-.426 1.926-.426l-.024-.139a.888.888 0 0 0-.787-.147v-.01l.002.005Z" opacity=".6"/><path fill="#000" d="M48.831 34.17a3.5 3.5 0 0 1-1.262-.24 3.431 3.431 0 0 1-2.172-1.843 1.32 1.32 0 0 1 .023-1.164c.197-.368.549-.623.959-.69.482-.074.967.125 1.262.51.207.269.467.459.788.557.009 0 .016 0 .025.01.312.114.63.123.959.032.475-.131.974 0 1.312.351.285.303.417.713.351 1.132-.066.41-.312.754-.68.942a3.4 3.4 0 0 1-1.574.393l.01.01Zm-2.237-3.1h-.072a.486.486 0 0 0-.345.246.418.418 0 0 0-.01.394c.329.696.886 1.164 1.657 1.394a.04.04 0 0 1 .026.007c.754.279 1.476.246 2.155-.106a.443.443 0 0 0 .23-.318.478.478 0 0 0-.122-.4c-.115-.123-.295-.172-.466-.123a2.403 2.403 0 0 1-1.476-.049 2.338 2.338 0 0 1-1.204-.853.463.463 0 0 0-.377-.187h.006l-.002-.005Z"/><path fill="#FFCA28" d="M32.322 30.152c-2.149.302-2.648.515-1.434 2.165a.487.487 0 0 1 0 .531c-.319.443-.853 1.385-.213 2.1.564.64 1.237.351 1.729.114.187-.089.4.026.433.23.05.279.122.663.246 1.007.345.975 1.22 1.542 1.755 1.811.18.09.213.319.073.467-.246.253-.483.646-.385 1.131.155.81 1.083.738 1.772.253.433.647.967 1.336 1.443 1.73a.432.432 0 0 1 .072.58c-.393.541-1 1.591-.344 2.205.689.646 1.64 1.417 2.903-.188.482-.557.918-1.36 1.279-2.28.016-.032.033-.065.05-.107.065-.122.442-.754.63-1.122"/><path fill="#000" d="M38.675 45.677c-.721.057-1.286-.41-1.761-.852-.057-.059-.115-.115-.164-.18-.434-.591-.28-1.46.459-2.477.023-.04.016-.09-.017-.115-.384-.319-.827-.836-1.319-1.532-.482.253-.984.311-1.368.164-.335-.131-.557-.417-.63-.804-.122-.64.197-1.122.433-1.384-.663-.345-1.508-.968-1.86-1.968a6.898 6.898 0 0 1-.253-1.017c-.459.22-1.352.623-2.09-.213-.574-.647-.508-1.565.188-2.526a.11.11 0 0 0 0-.138c-.886-1.204-1.657.36-.804-.656.122-.148.171-.541.319-.417.147.122-.256.019-.377.166-.69.82-.03-1.04 1.42.516l.006.01a.804.804 0 0 1-.016.918c-.286.4-.705 1.147-.23 1.672.352.4.738.319 1.329.033a.65.65 0 0 1 .58 0c.181.098.312.27.345.466.04.253.115.623.23.942.286.82 1.024 1.335 1.59 1.624.181.089.303.253.336.459a.651.651 0 0 1-.171.548c-.172.18-.368.466-.296.827.04.213.148.279.22.302.247.099.664-.01 1.017-.262a.334.334 0 0 1 .474.091c.524.778 1 1.352 1.377 1.657a.766.766 0 0 1 .131 1.04c-.278.377-.86 1.302-.384 1.755.384.36 1.483 1.129 1.933 1.096"/><path stroke="#000" stroke-miterlimit="10" stroke-width=".532" d="M38.675 45.677c-.721.057-1.286-.41-1.761-.852-.057-.059-.115-.115-.164-.18-.434-.591-.28-1.46.459-2.477.023-.04.016-.09-.017-.115-.384-.319-.827-.836-1.319-1.532-.482.253-.984.311-1.368.164-.335-.131-.557-.417-.63-.804-.122-.64.197-1.122.433-1.384-.663-.345-1.508-.968-1.86-1.968a6.898 6.898 0 0 1-.253-1.017c-.459.22-1.352.623-2.09-.213-.574-.647-.508-1.565.188-2.526a.11.11 0 0 0 0-.138c-.886-1.204-1.657.36-.804-.656.122-.148.171-.541.319-.417.147.122-.256.019-.377.166-.69.82-.03-1.04 1.42.516l.006.01a.804.804 0 0 1-.016.918c-.286.4-.705 1.147-.23 1.672.352.4.738.319 1.329.033a.65.65 0 0 1 .58 0c.181.098.312.27.345.466.04.253.115.623.23.942.286.82 1.024 1.335 1.59 1.624.181.089.303.253.336.459a.651.651 0 0 1-.171.548c-.172.18-.368.466-.296.827.04.213.148.279.22.302.247.099.664-.01 1.017-.262a.334.334 0 0 1 .474.091c.524.778 1 1.352 1.377 1.657a.766.766 0 0 1 .131 1.04c-.278.377-.86 1.302-.384 1.755.384.36 1.483 1.129 1.933 1.096"/><path fill="#FFCA28" d="M68.323 46.72c.368 2.582-1.499 4.344-3.811 3.484a.555.555 0 0 0-.614.187c-.4.516-1.312 1.444-2.352.952-.926-.443-.82-1.312-.712-1.96a.367.367 0 0 0-.41-.425c-.338.04-.811.082-1.247.056-1.246-.075-2.188-.902-2.68-1.427a.349.349 0 0 0-.558.066c-.213.367-.59.77-1.171.82-.984.089-1.214-1.008-.886-1.959-.892-.286-1.87-.663-2.483-1.082a.515.515 0 0 0-.696.107c-.492.63-1.5 1.69-2.427 1.132-.975-.581-2.188-1.417-.754-3.411.482-.738 1.262-1.516 2.204-2.237.033-.033.066-.057.106-.09a35.94 35.94 0 0 1 1.082-1.105"/><path fill="#000" d="M46.505 45.277c.18.853.909 1.352 1.574 1.745.082.05.171.09.263.124.827.312 1.778-.164 2.706-1.36a.112.112 0 0 1 .138-.024c.492.335 1.237.68 2.214 1.017-.131.64-.033 1.246.27 1.64.262.344.672.508 1.138.459.778-.073 1.237-.607 1.45-.959.623.657 1.624 1.418 2.903 1.493.45.026.925-.007 1.263-.05-.108.607-.263 1.772.941 2.346.935.45 1.975.056 2.854-1.066.033-.05.098-.066.155-.05 1.689.614 1.827.91 2.713-.416.121-.188.658-.417.468-.549-.187-.121-.855-.082-.986.106-.712 1.066-.63.564-1.926.089h-.016a.955.955 0 0 0-1.057.328c-.368.466-1.09 1.197-1.853.827-.581-.279-.614-.745-.483-1.525a.787.787 0 0 0-.204-.673.79.79 0 0 0-.656-.239c-.302.04-.754.075-1.171.05-1.05-.057-1.886-.738-2.401-1.296a.756.756 0 0 0-.64-.239.765.765 0 0 0-.574.384c-.148.263-.417.581-.853.614-.253.026-.368-.073-.426-.148-.197-.246-.213-.77-.033-1.262a.428.428 0 0 0-.016-.319.402.402 0 0 0-.24-.204c-1.072-.344-1.892-.705-2.377-1.033a.926.926 0 0 0-1.247.197c-.344.443-1.22 1.434-1.893 1.033-1.394-.539-1.284-1.841-1.398-2.376"/><path stroke="#000" stroke-miterlimit="10" stroke-width=".532" d="M46.505 45.277c.18.853.909 1.352 1.574 1.745.082.05.171.09.263.124.827.312 1.778-.164 2.706-1.36a.112.112 0 0 1 .138-.024c.492.335 1.237.68 2.214 1.017-.131.64-.033 1.246.27 1.64.262.344.672.508 1.138.459.778-.073 1.237-.607 1.45-.959.623.657 1.624 1.418 2.903 1.493.45.026.925-.007 1.263-.05-.108.607-.263 1.772.941 2.346.935.45 1.975.056 2.854-1.066.033-.05.098-.066.155-.05 1.689.614 1.827.91 2.713-.416.121-.188.658-.417.468-.549-.187-.121-.855-.082-.986.106-.712 1.066-.63.564-1.926.089h-.016a.955.955 0 0 0-1.057.328c-.368.466-1.09 1.197-1.853.827-.581-.279-.614-.745-.483-1.525a.787.787 0 0 0-.204-.673.79.79 0 0 0-.656-.239c-.302.04-.754.075-1.171.05-1.05-.057-1.886-.738-2.401-1.296a.756.756 0 0 0-.64-.239.765.765 0 0 0-.574.384c-.148.263-.417.581-.853.614-.253.026-.368-.073-.426-.148-.197-.246-.213-.77-.033-1.262a.428.428 0 0 0-.016-.319.402.402 0 0 0-.24-.204c-1.072-.344-1.892-.705-2.377-1.033a.926.926 0 0 0-1.247.197c-.344.443-1.22 1.434-1.893 1.033-1.394-.539-1.284-1.841-1.398-2.376"/><path fill="#000" stroke="#000" stroke-width=".201" d="m38.534 46.875 18.87-16.608L39.41 47.826l-.877-.951Z"/><path fill="#FFD9AB" d="M42.873 37.907c-.164.836.46.967 1.27 1a.47.47 0 0 1 .434.607 9.572 9.572 0 0 1-.319.958c-.27.663.705.672.705.672l.155.017s.958.17.81-.525c-.065-.328-.105-.705-.138-1.007a.479.479 0 0 1 .548-.516c.877.131 1.664.164 1.582-.728-.066-.729-.975-1.795-2.369-1.926-1.394-.131-2.516.59-2.68 1.46v-.008l.002-.004Z"/><path fill="#FEFEFD" d="M43.34 38.792a1.07 1.07 0 0 1 0-.459c.173-.86 1.286-1.581 2.68-1.45.564.05 1.056.262 1.433.532a2.867 2.867 0 0 0-1.909-.968c-1.394-.131-2.516.59-2.68 1.45-.106.525.105.771.476.893v.002Z" opacity=".55"/><path fill="#000" d="M45.849 41.34c-.295.14-.663.1-.77.073l-.132-.016c-.131 0-.663-.033-.893-.377-.082-.124-.154-.345-.032-.647.098-.246.203-.564.311-.934a.25.25 0 0 0-.033-.188.224.224 0 0 0-.164-.089c-.508-.026-1.073-.082-1.36-.45-.174-.213-.223-.508-.149-.86.214-1.066 1.51-1.803 2.969-1.663 1.581.148 2.533 1.352 2.607 2.165.033.36-.049.63-.246.82-.367.344-1.007.286-1.63.187a.216.216 0 0 0-.18.059.21.21 0 0 0-.066.18c.033.377.082.722.131.984.066.328-.05.525-.157.63a.636.636 0 0 1-.18.132h-.026v-.005Zm-2.722-3.385c-.057.303.025.401.049.443.147.188.574.24.974.253a.737.737 0 0 1 .68.933 9.83 9.83 0 0 1-.328.984c-.026.049-.04.124-.017.164.057.089.319.147.476.147h.026l.154.017h.026c.155.026.417.026.5-.056.032-.033.025-.108.016-.165a9.581 9.581 0 0 1-.139-1.04.758.758 0 0 1 .23-.606.737.737 0 0 1 .614-.197c.318.049.984.147 1.197-.05.075-.072.108-.203.089-.393-.056-.63-.893-1.574-2.132-1.69-1.312-.121-2.27.549-2.401 1.247l-.017.01h.003Z"/><path fill="#D0000A" d="M67.719 42.128c1.837-.925 3.835-.279 4.458 1.427.63 1.713-.351 3.845-2.188 4.77-1.837.925-3.835.279-4.458-1.427-.63-1.712.351-3.844 2.188-4.77Z"/><path fill="#fff" d="M68.16 48.604s-3.96-1.624-.811-5.878c0 0-2.057 1.237-2.09 3.197-.033 1.96 2.903 2.68 2.903 2.68h-.003Z" opacity=".6"/><path fill="#707070" d="M67.35 42.728s3.712-1.41 4.057 1.476c.344 2.886-2.697 4.18-2.697 4.18l-.032.344c.433-.05.876-.18 1.311-.394 1.837-.925 2.821-3.057 2.189-4.77-.394-1.082-1.336-1.729-2.444-1.837l-2.394 1H67.349Z" opacity=".29"/><path fill="#000" d="M72.8 44.194c.09.755-.04 1.542-.383 2.303a4.865 4.865 0 0 1-2.238 2.33c-.984.491-2.04.597-2.985.294-.974-.311-1.712-1.023-2.073-2.007-.36-.975-.295-2.1.188-3.14a4.864 4.864 0 0 1 2.237-2.328c.984-.492 2.04-.598 2.985-.296.974.312 1.712 1.024 2.073 2.008.098.27.164.548.204.844l-.01-.01.003.002Zm-6.992 1.936c.025.196.065.384.13.564.247.673.772 1.172 1.484 1.401.745.24 1.59.148 2.385-.246a3.89 3.89 0 0 0 1.794-1.853c.345-.754.4-1.541.155-2.22-.246-.673-.77-1.172-1.483-1.402-.745-.239-1.59-.148-2.385.246a3.89 3.89 0 0 0-1.795 1.853c-.253.549-.351 1.123-.285 1.657Z"/><path fill="#D0000A" d="M59.24 40.448c.53-1.21-.307-2.745-1.867-3.427-1.56-.682-3.254-.25-3.781.96-.53 1.212.307 2.746 1.867 3.428 1.56.682 3.254.25 3.781-.96Z"/><path fill="#fff" d="M54.34 40.514s-1.657-3.172 2.368-3.477c0 0-1.877-.59-2.854.394-.974.975.492 3.083.492 3.083h-.007Z" opacity=".6"/><path fill="#707070" d="M56.71 37.04s2.985 1.483 1.795 3.155c-1.188 1.673-3.713.532-3.713.532l-.188.157c.295.23.63.426 1 .574 1.591.614 3.238.105 3.681-1.131.279-.788.017-1.673-.614-2.378l-1.968-.91h.01-.003Z" opacity=".29"/><path fill="#000" d="M59.365 41.015c-.312.434-.778.762-1.361.942-.778.237-1.673.188-2.526-.138-.853-.328-1.558-.902-1.991-1.614-.45-.738-.565-1.542-.303-2.254.253-.712.844-1.246 1.647-1.492.778-.24 1.673-.188 2.526.138.853.328 1.558.902 1.991 1.614.45.738.558 1.542.303 2.254a2.397 2.397 0 0 1-.286.548v.002Zm-5.272-3.148a1.302 1.302 0 0 0-.187.367c-.18.492-.09 1.057.23 1.591.344.565.908 1.017 1.597 1.286.69.27 1.401.312 2.018.122.58-.18 1-.548 1.18-1.04.18-.492.09-1.056-.23-1.59-.344-.565-.908-1.017-1.597-1.287s-1.401-.312-2.017-.122a1.879 1.879 0 0 0-.984.673h-.01Z"/><path fill="#87C44E" d="M60.513 44.358a.627.627 0 0 0-.263.598c.026.23.017.532-.164.853-.154.328-.4.515-.597.623a.647.647 0 0 0-.335.557c0 .417.4.722.794.607.45-.131 1-.443 1.336-1.164a2.103 2.103 0 0 0 .18-1.762.624.624 0 0 0-.951-.302v-.01Z"/><path fill="#fff" d="M60.25 44.956c.026.23.017.532-.164.853-.154.328-.4.515-.597.623a.647.647 0 0 0-.335.558c0 .18.075.335.187.45l.286-.026s-.426-.295-.082-.548c.344-.253.794-.18 1.082-1.057.286-.87-.089-1.394-.089-1.394h-.098a.641.641 0 0 0-.187.532v.007l-.003.002Z" opacity=".6"/><path fill="#000" d="M61.857 45.71c-.04.27-.131.558-.302.86a2.402 2.402 0 0 1-1.526 1.312.884.884 0 0 1-.803-.147.933.933 0 0 1 .115-1.572c.213-.115.368-.28.475-.492 0 0 0-.01.01-.017a1.1 1.1 0 0 0 .13-.663.927.927 0 0 1 .394-.876.928.928 0 0 1 .828-.124.893.893 0 0 1 .58.574c.099.295.171.689.106 1.148h-.01l.003-.003Zm-2.401 1.23v.05a.322.322 0 0 0 .41.311 1.843 1.843 0 0 0 1.154-1s0-.017.008-.017a1.807 1.807 0 0 0 .157-1.515.34.34 0 0 0-.197-.197.348.348 0 0 0-.295.04.34.34 0 0 0-.139.311c.04.361-.026.712-.197 1.024-.154.319-.41.581-.728.754a.35.35 0 0 0-.173.237v.002Z"/><path fill="#D0000A" d="M38.162 34.868c1.537-.42 2.357-2.324 1.83-4.255-.527-1.93-2.2-3.156-3.737-2.736-1.537.42-2.357 2.324-1.83 4.254.527 1.93 2.2 3.156 3.737 2.737Z"/><path fill="#fff" d="M34.454 30.283s1.919-3.73 5.09-.106c0 0-.76-2.18-2.417-2.45-1.656-.263-2.673 2.558-2.673 2.558v-.002Z" opacity=".6"/><path fill="#707070" d="M39.544 30.178s.68 3.844-1.81 3.844c-2.491 0-3.166-3.165-3.166-3.165l-.285-.066a4.56 4.56 0 0 0 .154 1.345c.525 1.926 2.198 3.156 3.73 2.73.967-.263 1.647-1.123 1.893-2.198l-.516-2.483v-.01.003Z" opacity=".29"/><path fill="#000" d="M37.544 35.4c-.647 0-1.303-.22-1.893-.656-.788-.574-1.378-1.46-1.657-2.493-.279-1.033-.22-2.09.164-2.992.4-.934 1.106-1.581 1.984-1.82.877-.24 1.811-.04 2.631.558.788.573 1.378 1.46 1.657 2.492.279 1.033.22 2.09-.164 2.992-.4.935-1.106 1.581-1.984 1.82a2.854 2.854 0 0 1-.738.099Zm-.673-7.148c-.164 0-.335.026-.499.066-.607.163-1.099.63-1.394 1.302-.302.705-.344 1.558-.122 2.394.23.837.696 1.542 1.32 2.001.59.434 1.253.581 1.86.417.606-.164 1.098-.63 1.393-1.302.303-.706.345-1.558.122-2.395-.23-.836-.696-1.541-1.319-2-.433-.32-.902-.483-1.36-.483Z"/><path fill="#FFD9AB" d="M61.43 27.202c-.843-.025-.875.614-.777 1.418a.484.484 0 0 1-.532.532 9.071 9.071 0 0 1-1-.157c-.696-.155-.541.803-.541.803v.155s0 .974.663.712c.311-.122.68-.22.974-.302a.48.48 0 0 1 .598.46c.016.892.105 1.672.984 1.442.705-.187 1.614-1.253 1.508-2.657-.107-1.4-1-2.384-1.876-2.41v.004Z"/><path fill="#FEFEFD" d="M60.628 27.816a.912.912 0 0 1 .45-.072c.876.023 1.77 1.007 1.876 2.41a2.836 2.836 0 0 1-.295 1.5c.4-.483.705-1.204.646-2.04-.098-1.402-1-2.386-1.876-2.412-.532-.016-.745.23-.804.614h.003Z" opacity=".55"/><path fill="#000" d="M58.528 30.702c-.187-.262-.204-.64-.204-.745v-.13c-.032-.132-.082-.664.22-.952.106-.106.312-.213.63-.138.263.058.598.114.968.154a.247.247 0 0 0 .18-.065.224.224 0 0 0 .066-.18c-.058-.51-.098-1.074.22-1.418.188-.204.46-.295.828-.286 1.09.033 2.024 1.197 2.132 2.647.114 1.591-.919 2.723-1.706 2.927-.344.089-.63.058-.853-.115-.4-.302-.443-.951-.45-1.582a.226.226 0 0 0-.081-.17c-.06-.04-.125-.06-.188-.04a9.84 9.84 0 0 0-.951.295c-.312.114-.525.04-.647-.05a.58.58 0 0 1-.157-.154l-.007.007v-.005Zm2.894-3.247c-.312-.01-.394.09-.427.124-.164.18-.138.607-.089 1.008.026.22-.049.45-.213.607a.732.732 0 0 1-.607.213c-.4-.04-.745-.099-1.024-.164-.058-.017-.13-.026-.164.01-.082.072-.089.334-.065.498v.18s.007.017.007.026c0 .155.049.417.138.483.04.026.105 0 .164-.017.27-.105.607-.203 1-.311a.724.724 0 0 1 .63.131c.181.138.287.345.296.574 0 .319.016 1 .246 1.171.082.066.22.075.4.026.607-.154 1.401-1.138 1.32-2.385-.099-1.312-.919-2.148-1.624-2.165l.007-.009h.005Z"/><path fill="#87C44E" d="M71.22 32.523c-.418.065-.772.351-.91.754-.138.384-.41.876-.951 1.246-.515.401-1.066.516-1.483.525-.426.017-.81.253-.991.64-.328.672.066 1.492.804 1.623.843.148 1.984.082 3.116-.81 1.187-.81 1.597-1.87 1.721-2.723.099-.745-.557-1.368-1.302-1.262v.009l-.005-.002Z"/><path fill="#fff" d="M70.31 33.277c-.138.387-.41.877-.951 1.247-.515.4-1.066.515-1.483.524-.426.017-.81.253-.991.64a1.158 1.158 0 0 0-.05.886l.493.187s-.46-.82.302-.951c.761-.131 1.434.344 2.608-.844 1.171-1.187.974-2.328.974-2.328l-.164-.082a1.16 1.16 0 0 0-.738.712V33.277Z" opacity=".6"/><path fill="#000" d="M71.957 35.685a4.028 4.028 0 0 1-1.017.991c-1.138.886-2.28.91-3.04.778a1.437 1.437 0 0 1-1.025-.761 1.455 1.455 0 0 1 1.253-2.113c.378-.01.713-.131 1.001-.352l.026-.016a1.66 1.66 0 0 0 .64-.844c.18-.508.623-.876 1.155-.958.459-.065.909.082 1.237.41.328.319.475.762.417 1.214a3.817 3.817 0 0 1-.647 1.673V35.685Zm-4.215.05s-.026.04-.04.065a.497.497 0 0 0 0 .46.485.485 0 0 0 .352.262c.836.148 1.614-.059 2.312-.597.007 0 .017-.017.024-.017.728-.501 1.164-1.18 1.279-2.017a.472.472 0 0 0-.138-.41.516.516 0 0 0-.853.197 2.65 2.65 0 0 1-.991 1.302 2.725 2.725 0 0 1-1.542.549.522.522 0 0 0-.41.213l.01-.01-.003.003Z"/><path stroke="#fff" stroke-miterlimit="10" stroke-width=".647" d="M40.053 38.244a.63.63 0 1 0 0-1.261.63.63 0 0 0 0 1.26ZM59.407 35.063a.892.892 0 1 0 0-1.785.892.892 0 0 0 0 1.785ZM63.308 42.358a.63.63 0 1 0 0-1.26.63.63 0 0 0 0 1.26Z" opacity=".5"/><path stroke="#fff" stroke-miterlimit="10" stroke-width=".459" d="M51.741 42.522a.45.45 0 1 0 0-.9.45.45 0 0 0 0 .9ZM42.585 31.824a.45.45 0 1 0 0-.9.45.45 0 0 0 0 .9Z" opacity=".5"/><path fill="#D0000A" d="M26.497 63.884c-.072-.59-.655-1.024-1.466-1.624-1.296-.958-3.074-2.28-3.116-4.573l1.171-13.797c.04.056.09.115.139.164.295.312.672.476 1.089.476.187 0 .394-.033.607-.108a.526.526 0 0 0 .115-.056c.049-.033 1.171-.778 1.27-2.1.056-.787-.263-1.58-.952-2.377.106.042.213.075.328.107.63.171 1.066.558 1.296 1.139.36.925.147 2.263-.516 3.33-.623.99-.426 1.99.05 2.532.285.318.663.492 1.066.492.548 0 1.082-.328 1.499-.91.213-.294.41-.672.564-1.121a5.94 5.94 0 0 0 .336-2.444c.056.131.105.262.163.4.254.657.368 1.28.361 1.887 0 .531-.114.99-.138 1.082l-.023.089c-.033.155-.056.239-.073.312-.05.18-.082.337-.089.557-.01.335.05.663.188.991.22.532.721.876 1.27.876h.114a1.02 1.02 0 0 0 .426-.147c.303-.204.417-.5.5-.787.056-.197.098-.361.13-.483a11.974 11.974 0 0 1 .582 7.696c0 .017-.017.066-.017.082-.138.5-.27 1.05-.41 1.598-.754 3.074-1.4 5.73-3.893 6.033-1.263.154-2.025.672-2.493 1.131l-.056-.466-.024.016.002.003Z"/><path fill="#000" d="M26.228 43.874a2.057 2.057 0 0 1-.197.344c-.761 1.204-.499 2.434.099 3.123.377.426.885.656 1.433.656.41 0 1.214-.148 1.893-1.115.164-.23.319-.502.46-.804-.017.082-.033.138-.04.171-.007.04-.024.082-.04.138 0 .017 0 .033-.01.05-.023.098-.04.17-.056.246-.049.187-.098.393-.105.656-.017.41.065.81.22 1.197a1.87 1.87 0 0 0 1.729 1.18h.155c.236-.016.459-.098.656-.23a1.31 1.31 0 0 0 .335-.301c.597 1.991.663 4.156.122 6.213a71.968 71.968 0 0 0-.418 1.663c-.82 3.346-1.426 5.41-3.476 5.656-.902.105-1.582.393-2.09.721-.237-.597-.837-1.04-1.574-1.59-1.27-.942-2.854-2.116-2.92-4.14l1.1-12.87c.252.116.524.172.81.172.246 0 .499-.04.754-.131.082-.026.155-.066.23-.106.082-.058.541-.368.925-.918M23.62 36.43s-1.007 1.63.745 3.181c3.009 2.647.401 4.353.401 4.353a1.378 1.378 0 0 1-.45.082c-1.63 0-1.427-3.566-1.4-3.852l-1.493 17.501c.082 3.845 4.458 5.14 4.59 6.246.138 1.122.154 1.5.245 1.5.18 0 .647-1.467 2.845-1.739 3.32-.4 3.722-4.287 4.73-8.04 0 0 0-.017.007-.033a12.355 12.355 0 0 0-2.395-10.953c.139.204 1.123 1.647.935 2.68 0 0-.04.237-.204.81-.082.29-.164.418-.302.51a.393.393 0 0 1-.187.065h-.073c-.377 0-.68-.237-.82-.574a1.867 1.867 0 0 1-.148-.787c0-.246.066-.377.139-.729.007-.042.023-.082.032-.124.04-.164.148-.64.155-1.197.01-.598-.089-1.28-.394-2.067-1.328-3.467-3.582-4.163-3.647-4.189 1.312.64 3.352 3.058 2.23 6.24a4.363 4.363 0 0 1-.508 1.007c-.352.499-.745.705-1.09.705a.929.929 0 0 1-.695-.328c-.368-.426-.483-1.188 0-1.952 1.164-1.86 1.155-4.605-1.057-5.205-2.181-.598-2.181-3.041-2.181-3.1l-.007-.016-.003.005ZM10.031 128.512c-.1 0-.166.066-.166.166v6.832H.567v-23.325H11.53c2.233 0 4.231.834 5.798 2.399 1.568 1.567 2.367 3.599 2.367 5.766a8.156 8.156 0 0 1-8.165 8.164h-1.5v-.002Zm-.166-7.331c0 .366.267.633.633.633a.613.613 0 0 0 .632-.633v-1.633c0-.433-.199-.632-.632-.632a.613.613 0 0 0-.633.632v1.633ZM21.19 135.51v-23.325h9.297v23.325h-9.296ZM39.118 135.51a7.084 7.084 0 0 1-7.1-7.099c0-3.198 2.433-5.997 5.6-6.431l4.632-.632c.4-.101.534-.401.534-.633 0-.033-.066-.665-.567-.665-.066 0-.1.033-.166.033l-10.03 1.398v-9.296h12.797c3.865 0 7.098 3.165 7.098 7.099 0 3.165-2.366 5.997-5.599 6.431l-4.732.665c-.401.033-.5.366-.5.6 0 .065.033.632.6.632h.101l10.13-1.433v9.331H39.118ZM60.576 135.51a7.084 7.084 0 0 1-7.099-7.099c0-3.198 2.432-5.997 5.6-6.431l4.631-.632c.4-.101.534-.401.534-.633 0-.033-.065-.665-.567-.665-.065 0-.1.033-.166.033l-10.03 1.398v-9.296h12.797c3.865 0 7.099 3.165 7.099 7.099 0 3.165-2.367 5.997-5.6 6.431l-4.732.665c-.4.033-.5.366-.5.6 0 .065.034.632.6.632h.101l10.13-1.433v9.331H60.577ZM84.627 130.578v4.932h-9.762l3.099-23.325H92.56l3.1 23.325h-9.763v-4.932a.613.613 0 0 0-.633-.632.613.613 0 0 0-.632.632h-.005Zm0-8.031c0 .434.2.633.633.633a.613.613 0 0 0 .632-.633v-2.832a.613.613 0 0 0-.632-.633c-.434 0-.633.199-.633.633v2.832ZM39.024 108.275h-9.856V82.24h14.469l1.898 13.426c.037.335.372.633.67.633.037 0 .112-.038.147-.038.41-.112.595-.372.595-.67v-.112l-1.86-13.242h9.856v26.036H40.437l-1.86-13.317c-.038-.557-.446-.67-.708-.67-.075 0-.708.038-.708.745v.113l1.86 13.129.003.002ZM56.804 108.275V82.239H67.18v26.036H56.804ZM86.14 93.176c3.608.482 6.249 3.645 6.249 7.178 0 4.388-3.608 7.923-7.924 7.923H70.184V97.864l11.306 1.6h.113c.67 0 .707-.633.707-.708 0-.26-.148-.632-.633-.67l-5.243-.743c-3.533-.482-6.248-3.645-6.248-7.178a7.906 7.906 0 0 1 7.923-7.923h14.282v10.376L81.16 91.055c-.075 0-.113-.037-.185-.037-.52 0-.596.707-.596.742 0 .26.148.596.596.708l5.17.708h-.004ZM70.63 85.573l-2.665-.333 2.76-5.552a1.913 1.913 0 0 1 1.473 2.755l-1.567 3.13ZM14.141 109.065c-3.7 0-7.099-1.42-9.678-4-2.58-2.579-4-5.978-4-9.678 0-7.51 6.13-13.677 13.678-13.677h.038c3.699 0 7.098 1.382 9.678 4.037 2.577 2.577 3.999 6.016 3.999 9.64 0 7.549-6.129 13.678-13.677 13.678h-.038Zm-.71-8.856c0 .485.225.71.71.71.41 0 .71-.3.71-.71v-9.64c0-.41-.3-.71-.71-.71s-.71.3-.71.71v9.64Z"/><path fill="#000" d="M18.56 86.367H9.866v20.226h8.694V86.367Z"/><path stroke="#FFCA28" stroke-miterlimit="10" stroke-width=".225" d="M20.342 91.735a6.67 6.67 0 0 0-1.101-.926.184.184 0 0 0-.131-.084c-.8-.527-1.823-1.031-3.036-1.488-1.666-.628-3.325-.988-4.555-.988-.424 0-.766.044-1.021.13-.403.137-.645.56-.654 1.167-.01.497.143 1.08.45 1.329-.846 4.261-.185 10.957.501 11.866.08.106.174.164.277.171.356.026.485-.255.56-.424.086-.197.105-.194.187-.18.066.011.077.356.08.487.011.316.02.644.232.822.084.075.19.11.316.11.026 0 .056 0 .084-.004.541-.071.623-.755.696-1.359.028-.244.087-.752.194-.797.054-.023.061-.025.174.143.14.211.377.565.958.368.546-.185.555-.644.565-1.089.01-.377.018-.806.3-1.24.592-.904 3.312-4.416 3.858-5.116a.725.725 0 0 0 .176.023c.747 0 1.464-1.162 1.555-1.4.075-.195.029-.767-.665-1.517v-.004Z"/><path fill="#FFCA28" d="M15.975 89.612c.274.103.53.206.771.31v.006c.272.91.516 1.835.729 2.76a11.003 11.003 0 0 0-1.804-.928c0-.035 0-.072-.017-.105a18.118 18.118 0 0 1-.995-2.479c.43.127.871.272 1.312.438l.004-.002ZM14.2 89.045c.262.86.59 1.706.974 2.516a16.08 16.08 0 0 0-1.6-.513c-.005-.014-.005-.025-.012-.035a13.123 13.123 0 0 1-1.012-2.296c.511.066 1.069.178 1.65.328ZM11.562 88.65c.152 0 .314.006.478.018a.256.256 0 0 0 .056.066c.051.035.086.138.114.222.23.677.518 1.338.853 1.968a10.899 10.899 0 0 0-1.21-.199 1.087 1.087 0 0 0-.116-.314l-.876-1.7c.19-.038.429-.06.703-.06l-.002-.002ZM10.287 89.551c0-.157.033-.487.206-.675l.886 1.715c.016.029.03.061.044.092l-.192-.014c-.278-.021-.48-.033-.602-.08-.145-.054-.351-.513-.344-1.035l.002-.003ZM19.494 94.249a.264.264 0 0 1-.14-.038c-.16-.089-.326-.243-.534-.443-.225-.21-.492-.461-.853-.738a44.135 44.135 0 0 0-.743-2.898 12.27 12.27 0 0 1 1.741.954c.391.967.705 1.975.928 2.992-.136.103-.274.17-.399.17ZM20.675 93.112c-.042.113-.22.394-.447.649a18.928 18.928 0 0 0-.663-2.233c.998.82 1.157 1.446 1.11 1.584Z"/><path fill="#FFCA28" d="m11.426 90.683-.192-.014c-.28-.021-.48-.033-.602-.08-.146-.054-.352-.513-.345-1.035 0-.157.033-.488.206-.675l.886 1.715c.016.028.03.06.044.091l.003-.002ZM13.063 90.922a10.872 10.872 0 0 0-1.21-.2 1.086 1.086 0 0 0-.116-.313l-.876-1.701c.19-.037.429-.059.703-.059.152 0 .314.007.478.02a.256.256 0 0 0 .056.065c.052.035.087.138.115.222.23.677.518 1.338.853 1.968l-.003-.002ZM15.174 91.561a16.08 16.08 0 0 0-1.6-.513c-.005-.014-.005-.025-.012-.035a13.123 13.123 0 0 1-1.012-2.296c.511.066 1.069.178 1.65.328.262.86.59 1.706.974 2.516ZM20.675 93.112c-.042.113-.22.394-.447.649a18.928 18.928 0 0 0-.663-2.233c.998.82 1.157 1.446 1.11 1.584ZM19.895 94.078c-.136.103-.274.17-.398.17a.264.264 0 0 1-.14-.037c-.16-.089-.326-.243-.535-.443-.225-.21-.492-.461-.853-.738a44.136 44.136 0 0 0-.742-2.898 12.27 12.27 0 0 1 1.74.954c.392.967.706 1.975.928 2.992ZM17.477 92.688a11.003 11.003 0 0 0-1.804-.928c0-.035 0-.072-.016-.105a18.118 18.118 0 0 1-.996-2.479 18.292 18.292 0 0 1 2.083.748v.007c.271.909.515 1.834.728 2.76l.005-.003ZM18.496 94.113c-.564-.532-1.415-1.333-3.455-2.104-2.001-.755-3.182-.839-3.887-.888a5.419 5.419 0 0 1-.488-.05c-.363 1.882-.468 4.487-.29 7.198.183 2.748.567 4.149.736 4.294.046 0 .072-.026.145-.187.08-.183.218-.483.625-.41.385.07.396.513.408.869.005.185.014.469.09.534.02.017.06.017.09.012.232-.028.293-.572.345-1.01.063-.529.117-.984.443-1.12.365-.15.548.127.66.291.132.199.207.309.497.211.265-.089.284-.253.29-.72.012-.41.024-.923.368-1.452.59-.902 3.224-4.304 3.838-5.096a5.812 5.812 0 0 1-.42-.37l.005-.002Zm-7.225 3.877a.241.241 0 0 1-.223.162.255.255 0 0 1-.089-.017c-.145-.056-.18-.201-.136-.316.043-.115.165-.201.312-.143.145.054.18.2.136.314Zm.178-4.196a.567.567 0 0 1 .3-.316.553.553 0 0 1 .436-.017.58.58 0 0 1 .335.736.581.581 0 0 1-.736.333.572.572 0 0 1-.335-.736Zm.914 2.453v.016c.014.176-.038.312-.155.403a.433.433 0 0 1-.698-.262c-.026-.148.026-.283.15-.405l.012-.012c.103-.103.264-.131.421-.07a.396.396 0 0 1 .27.33Zm-.155 4.494a.384.384 0 0 1-.494.222.394.394 0 0 1-.223-.497.386.386 0 0 1 .495-.222c.194.075.297.3.224.497h-.002Zm.61-1.629a.472.472 0 0 1-.448.31.503.503 0 0 1-.384-.183c-.125-.153-.165-.424-.012-.6l.011-.014a.48.48 0 0 1 .3-.185c.171-.028.35.04.45.17l-.044.034.054-.021c.11.138.133.32.07.487l.002.002Zm.01-6.332c-.055.096-.182.143-.282.143h-.026a.338.338 0 0 1-.305-.284.319.319 0 0 1 .098-.344.353.353 0 0 1 .574.22c.022.1-.016.187-.06.267l.002-.002Zm1.24 7.042a.304.304 0 0 1-.283.206.311.311 0 0 1-.115-.023c-.185-.07-.23-.253-.176-.398a.296.296 0 0 1 .396-.187c.087.032.15.09.18.175.026.07.026.15-.004.227h.002Zm.033-4.037a.411.411 0 0 1-.237-.517.41.41 0 0 1 .518-.237c.204.08.312.314.235.518a.39.39 0 0 1-.211.225.4.4 0 0 1-.304.01v.002Zm.616 1.823a.245.245 0 0 1-.115.136.213.213 0 0 1-.105.026.243.243 0 0 1-.089-.019c-.148-.056-.183-.199-.136-.314.042-.115.164-.201.31-.145.07.026.119.075.14.136a.246.246 0 0 1-.005.178v.002Zm.303-4.543a.31.31 0 0 1-.284.209.304.304 0 0 1-.115-.023.298.298 0 0 1-.18-.176.317.317 0 0 1 .004-.227c.054-.146.209-.256.396-.186.186.073.23.256.176.401l.003.002Zm1.518 2.233a.597.597 0 0 1-.457-.11c-.113-.08-.232-.234-.242-.394v-.023a.626.626 0 0 1 .22-.607c.186-.147.502-.194.715-.019.063.052.11.113.138.172a.615.615 0 0 1 .132.433.614.614 0 0 1-.504.546l-.002.002Z"/></g><defs><clipPath id="a"><path fill="#fff" d="M.464.241h99.684v135.27H.464z"/></clipPath></defs></svg>